<svg width="1440" height="2028" viewBox="0 0 1440 2028" fill="none" xmlns="http://www.w3.org/2000/svg">
<g clip-path="url(#clip0_158_8528)">
<path d="M1439 -67H-6V2028H1439V-67Z" fill="url(#paint0_linear_158_8528)"/>
<g filter="url(#filter0_f_158_8528)">
<path d="M271.621 465.662C297.509 465.662 318.496 444.675 318.496 418.787C318.496 392.899 297.509 371.912 271.621 371.912C245.733 371.912 224.746 392.899 224.746 418.787C224.746 444.675 245.733 465.662 271.621 465.662Z" fill="white"/>
</g>
<g filter="url(#filter1_f_158_8528)">
<path d="M270.98 1465C296.869 1465 317.855 1444.01 317.855 1418.12C317.855 1392.23 296.869 1371.25 270.98 1371.25C245.092 1371.25 224.105 1392.23 224.105 1418.12C224.105 1444.01 245.092 1465 270.98 1465Z" fill="white"/>
</g>
<path d="M205.179 354H115.821C109.845 354 105 358.888 105 364.918V455.082C105 461.112 109.845 466 115.821 466H205.179C211.155 466 216 461.112 216 455.082V364.918C216 358.888 211.155 354 205.179 354Z" stroke="white" stroke-opacity="0.04" stroke-width="2.78762"/>
<path d="M204.179 1355H114.821C108.845 1355 104 1359.8 104 1365.72V1454.28C104 1460.2 108.845 1465 114.821 1465H204.179C210.155 1465 215 1460.2 215 1454.28V1365.72C215 1359.8 210.155 1355 204.179 1355Z" stroke="white" stroke-opacity="0.04" stroke-width="2.78762"/>
<path d="M205.179 578H115.821C109.845 578 105 582.845 105 588.821V678.179C105 684.155 109.845 689 115.821 689H205.179C211.155 689 216 684.155 216 678.179V588.821C216 582.845 211.155 578 205.179 578Z" stroke="white" stroke-opacity="0.04" stroke-width="2.78762"/>
<path d="M204.179 1577H114.821C108.845 1577 104 1581.84 104 1587.82V1677.18C104 1683.16 108.845 1688 114.821 1688H204.179C210.155 1688 215 1683.16 215 1677.18V1587.82C215 1581.84 210.155 1577 204.179 1577Z" stroke="white" stroke-opacity="0.04" stroke-width="2.78762"/>
<path d="M206.082 801H115.918C109.888 801 105 805.888 105 811.918V902.082C105 908.112 109.888 913 115.918 913H206.082C212.112 913 217 908.112 217 902.082V811.918C217 805.888 212.112 801 206.082 801Z" stroke="white" stroke-opacity="0.04" stroke-width="2.78762"/>
<path d="M204.179 1801H114.821C108.845 1801 104 1805.8 104 1811.72V1900.28C104 1906.2 108.845 1911 114.821 1911H204.179C210.155 1911 215 1906.2 215 1900.28V1811.72C215 1805.8 210.155 1801 204.179 1801Z" stroke="white" stroke-opacity="0.04" stroke-width="2.78762"/>
<path d="M650.179 578H560.821C554.845 578 550 582.845 550 588.821V678.179C550 684.155 554.845 689 560.821 689H650.179C656.155 689 661 684.155 661 678.179V588.821C661 582.845 656.155 578 650.179 578Z" stroke="white" stroke-opacity="0.04" stroke-width="2.78762"/>
<path d="M650.082 1577H559.918C553.888 1577 549 1581.84 549 1587.82V1677.18C549 1683.16 553.888 1688 559.918 1688H650.082C656.112 1688 661 1683.16 661 1677.18V1587.82C661 1581.84 656.112 1577 650.082 1577Z" stroke="white" stroke-opacity="0.04" stroke-width="2.78762"/>
<path d="M651.082 801H560.918C554.888 801 550 805.888 550 811.918V902.082C550 908.112 554.888 913 560.918 913H651.082C657.112 913 662 908.112 662 902.082V811.918C662 805.888 657.112 801 651.082 801Z" stroke="white" stroke-opacity="0.04" stroke-width="2.78762"/>
<path d="M650.082 1801H559.918C553.888 1801 549 1805.8 549 1811.72V1900.28C549 1906.2 553.888 1911 559.918 1911H650.082C656.112 1911 661 1906.2 661 1900.28V1811.72C661 1805.8 656.112 1801 650.082 1801Z" stroke="white" stroke-opacity="0.04" stroke-width="2.78762"/>
<path d="M1095.08 354H1004.92C998.888 354 994 358.888 994 364.918V455.082C994 461.112 998.888 466 1004.92 466H1095.08C1101.11 466 1106 461.112 1106 455.082V364.918C1106 358.888 1101.11 354 1095.08 354Z" stroke="white" stroke-opacity="0.04" stroke-width="2.78762"/>
<path d="M1095.08 1355H1004.92C998.888 1355 994 1359.8 994 1365.72V1454.28C994 1460.2 998.888 1465 1004.92 1465H1095.08C1101.11 1465 1106 1460.2 1106 1454.28V1365.72C1106 1359.8 1101.11 1355 1095.08 1355Z" stroke="white" stroke-opacity="0.04" stroke-width="2.78762"/>
<path d="M1095.08 578H1004.92C998.888 578 994 582.845 994 588.821V678.179C994 684.155 998.888 689 1004.92 689H1095.08C1101.11 689 1106 684.155 1106 678.179V588.821C1106 582.845 1101.11 578 1095.08 578Z" stroke="white" stroke-opacity="0.04" stroke-width="2.78762"/>
<path d="M1095.08 1577H1004.92C998.888 1577 994 1581.84 994 1587.82V1677.18C994 1683.16 998.888 1688 1004.92 1688H1095.08C1101.11 1688 1106 1683.16 1106 1677.18V1587.82C1106 1581.84 1101.11 1577 1095.08 1577Z" stroke="white" stroke-opacity="0.04" stroke-width="2.78762"/>
<path d="M1095.18 801H1005.82C999.845 801 995 805.888 995 811.918V902.082C995 908.112 999.845 913 1005.82 913H1095.18C1101.16 913 1106 908.112 1106 902.082V811.918C1106 805.888 1101.16 801 1095.18 801Z" stroke="white" stroke-opacity="0.04" stroke-width="2.78762"/>
<path d="M1095.08 1801H1004.92C998.888 1801 994 1805.8 994 1811.72V1900.28C994 1906.2 998.888 1911 1004.92 1911H1095.08C1101.11 1911 1106 1906.2 1106 1900.28V1811.72C1106 1805.8 1101.11 1801 1095.08 1801Z" stroke="white" stroke-opacity="0.04" stroke-width="2.78762"/>
<path d="M427.179 354H337.821C331.845 354 327 358.888 327 364.918V455.082C327 461.112 331.845 466 337.821 466H427.179C433.155 466 438 461.112 438 455.082V364.918C438 358.888 433.155 354 427.179 354Z" stroke="white" stroke-opacity="0.04" stroke-width="2.78762"/>
<path d="M427.179 1355H337.821C331.845 1355 327 1359.8 327 1365.72V1454.28C327 1460.2 331.845 1465 337.821 1465H427.179C433.155 1465 438 1460.2 438 1454.28V1365.72C438 1359.8 433.155 1355 427.179 1355Z" stroke="white" stroke-opacity="0.04" stroke-width="2.78762"/>
<path d="M427.179 578H337.821C331.845 578 327 582.845 327 588.821V678.179C327 684.155 331.845 689 337.821 689H427.179C433.155 689 438 684.155 438 678.179V588.821C438 582.845 433.155 578 427.179 578Z" stroke="white" stroke-opacity="0.04" stroke-width="2.78762"/>
<path d="M427.179 1577H337.821C331.845 1577 327 1581.84 327 1587.82V1677.18C327 1683.16 331.845 1688 337.821 1688H427.179C433.155 1688 438 1683.16 438 1677.18V1587.82C438 1581.84 433.155 1577 427.179 1577Z" stroke="white" stroke-opacity="0.04" stroke-width="2.78762"/>
<path d="M427.277 801H338.723C332.801 801 328 805.888 328 811.918V902.082C328 908.112 332.801 913 338.723 913H427.277C433.199 913 438 908.112 438 902.082V811.918C438 805.888 433.199 801 427.277 801Z" stroke="white" stroke-opacity="0.04" stroke-width="2.78762"/>
<path d="M427.179 1801H337.821C331.845 1801 327 1805.8 327 1811.72V1900.28C327 1906.2 331.845 1911 337.821 1911H427.179C433.155 1911 438 1906.2 438 1900.28V1811.72C438 1805.8 433.155 1801 427.179 1801Z" stroke="white" stroke-opacity="0.04" stroke-width="2.78762"/>
<path d="M872.179 578H782.821C776.845 578 772 582.845 772 588.821V678.179C772 684.155 776.845 689 782.821 689H872.179C878.155 689 883 684.155 883 678.179V588.821C883 582.845 878.155 578 872.179 578Z" stroke="white" stroke-opacity="0.04" stroke-width="2.78762"/>
<path d="M871.277 1577H782.723C776.801 1577 772 1581.84 772 1587.82V1677.18C772 1683.16 776.801 1688 782.723 1688H871.277C877.199 1688 882 1683.16 882 1677.18V1587.82C882 1581.84 877.199 1577 871.277 1577Z" stroke="white" stroke-opacity="0.04" stroke-width="2.78762"/>
<path d="M872.277 801H783.723C777.801 801 773 805.888 773 811.918V902.082C773 908.112 777.801 913 783.723 913H872.277C878.199 913 883 908.112 883 902.082V811.918C883 805.888 878.199 801 872.277 801Z" stroke="white" stroke-opacity="0.04" stroke-width="2.78762"/>
<path d="M872.179 1801H782.821C776.845 1801 772 1805.8 772 1811.72V1900.28C772 1906.2 776.845 1911 782.821 1911H872.179C878.155 1911 883 1906.2 883 1900.28V1811.72C883 1805.8 878.155 1801 872.179 1801Z" stroke="white" stroke-opacity="0.04" stroke-width="2.78762"/>
<path d="M1317.28 132H1228.72C1222.8 132 1218 136.801 1218 142.723V231.277C1218 237.199 1222.8 242 1228.72 242H1317.28C1323.2 242 1328 237.199 1328 231.277V142.723C1328 136.801 1323.2 132 1317.28 132Z" stroke="white" stroke-opacity="0.04" stroke-width="2.78762"/>
<path d="M1316.28 1131H1227.72C1221.8 1131 1217 1135.84 1217 1141.82V1231.18C1217 1237.16 1221.8 1242 1227.72 1242H1316.28C1322.2 1242 1327 1237.16 1327 1231.18V1141.82C1327 1135.84 1322.2 1131 1316.28 1131Z" stroke="white" stroke-opacity="0.04" stroke-width="2.78762"/>
<path d="M1317.28 354H1228.72C1222.8 354 1218 358.888 1218 364.918V455.082C1218 461.112 1222.8 466 1228.72 466H1317.28C1323.2 466 1328 461.112 1328 455.082V364.918C1328 358.888 1323.2 354 1317.28 354Z" stroke="white" stroke-opacity="0.04" stroke-width="2.78762"/>
<path d="M1316.28 1355H1227.72C1221.8 1355 1217 1359.8 1217 1365.72V1454.28C1217 1460.2 1221.8 1465 1227.72 1465H1316.28C1322.2 1465 1327 1460.2 1327 1454.28V1365.72C1327 1359.8 1322.2 1355 1316.28 1355Z" stroke="white" stroke-opacity="0.04" stroke-width="2.78762"/>
<path d="M1317.28 578H1228.72C1222.8 578 1218 582.845 1218 588.821V678.179C1218 684.155 1222.8 689 1228.72 689H1317.28C1323.2 689 1328 684.155 1328 678.179V588.821C1328 582.845 1323.2 578 1317.28 578Z" stroke="white" stroke-opacity="0.04" stroke-width="2.78762"/>
<path d="M1316.28 1577H1227.72C1221.8 1577 1217 1581.84 1217 1587.82V1677.18C1217 1683.16 1221.8 1688 1227.72 1688H1316.28C1322.2 1688 1327 1683.16 1327 1677.18V1587.82C1327 1581.84 1322.2 1577 1316.28 1577Z" stroke="white" stroke-opacity="0.04" stroke-width="2.78762"/>
<path d="M1318.18 801H1228.82C1222.84 801 1218 805.888 1218 811.918V902.082C1218 908.112 1222.84 913 1228.82 913H1318.18C1324.16 913 1329 908.112 1329 902.082V811.918C1329 805.888 1324.16 801 1318.18 801Z" stroke="white" stroke-opacity="0.04" stroke-width="2.78762"/>
<path d="M1317.28 1801H1228.72C1222.8 1801 1218 1805.8 1218 1811.72V1900.28C1218 1906.2 1222.8 1911 1228.72 1911H1317.28C1323.2 1911 1328 1906.2 1328 1900.28V1811.72C1328 1805.8 1323.2 1801 1317.28 1801Z" stroke="white" stroke-opacity="0.04" stroke-width="2.78762"/>
<path d="M205.179 21H115.821C109.845 21 105 25.8446 105 31.8208V121.179C105 127.155 109.845 132 115.821 132H205.179C211.155 132 216 127.155 216 121.179V31.8208C216 25.8446 211.155 21 205.179 21Z" stroke="url(#paint1_linear_158_8528)" stroke-opacity="0.04" stroke-width="2.78762"/>
<path d="M204.179 1019H114.821C108.845 1019 104 1023.89 104 1029.92V1120.08C104 1126.11 108.845 1131 114.821 1131H204.179C210.155 1131 215 1126.11 215 1120.08V1029.92C215 1023.89 210.155 1019 204.179 1019Z" stroke="url(#paint2_linear_158_8528)" stroke-opacity="0.04" stroke-width="2.78762"/>
<path d="M205.179 243H115.821C109.845 243 105 247.845 105 253.821V343.179C105 349.155 109.845 354 115.821 354H205.179C211.155 354 216 349.155 216 343.179V253.821C216 247.845 211.155 243 205.179 243Z" stroke="white" stroke-opacity="0.04" stroke-width="2.78762"/>
<path d="M204.179 1243H114.821C108.845 1243 104 1247.89 104 1253.92V1344.08C104 1350.11 108.845 1355 114.821 1355H204.179C210.155 1355 215 1350.11 215 1344.08V1253.92C215 1247.89 210.155 1243 204.179 1243Z" stroke="white" stroke-opacity="0.04" stroke-width="2.78762"/>
<path d="M205.179 467H115.821C109.845 467 105 471.845 105 477.821V567.179C105 573.155 109.845 578 115.821 578H205.179C211.155 578 216 573.155 216 567.179V477.821C216 471.845 211.155 467 205.179 467Z" stroke="white" stroke-opacity="0.04" stroke-width="2.78762"/>
<path d="M204.179 1466H114.821C108.845 1466 104 1470.84 104 1476.82V1566.18C104 1572.16 108.845 1577 114.821 1577H204.179C210.155 1577 215 1572.16 215 1566.18V1476.82C215 1470.84 210.155 1466 204.179 1466Z" stroke="white" stroke-opacity="0.04" stroke-width="2.78762"/>
<path d="M205.179 689H115.821C109.845 689 105 693.888 105 699.918V790.082C105 796.112 109.845 801 115.821 801H205.179C211.155 801 216 796.112 216 790.082V699.918C216 693.888 211.155 689 205.179 689Z" stroke="white" stroke-opacity="0.04" stroke-width="2.78762"/>
<path d="M204.179 1690H114.821C108.845 1690 104 1694.84 104 1700.82V1790.18C104 1796.16 108.845 1801 114.821 1801H204.179C210.155 1801 215 1796.16 215 1790.18V1700.82C215 1694.84 210.155 1690 204.179 1690Z" stroke="white" stroke-opacity="0.04" stroke-width="2.78762"/>
<path d="M206.082 913H115.918C109.888 913 105 917.845 105 923.821V1013.18C105 1019.16 109.888 1024 115.918 1024H206.082C212.112 1024 217 1019.16 217 1013.18V923.821C217 917.845 212.112 913 206.082 913Z" stroke="white" stroke-opacity="0.04" stroke-width="2.78762"/>
<path d="M204.179 1912H114.821C108.845 1912 104 1916.84 104 1922.82V2012.18C104 2018.16 108.845 2023 114.821 2023H204.179C210.155 2023 215 2018.16 215 2012.18V1922.82C215 1916.84 210.155 1912 204.179 1912Z" stroke="white" stroke-opacity="0.04" stroke-width="2.78762"/>
<path d="M650.179 689H560.821C554.845 689 550 693.888 550 699.918V790.082C550 796.112 554.845 801 560.821 801H650.179C656.155 801 661 796.112 661 790.082V699.918C661 693.888 656.155 689 650.179 689Z" stroke="white" stroke-opacity="0.04" stroke-width="2.78762"/>
<path d="M650.082 1690H559.918C553.888 1690 549 1694.84 549 1700.82V1790.18C549 1796.16 553.888 1801 559.918 1801H650.082C656.112 1801 661 1796.16 661 1790.18V1700.82C661 1694.84 656.112 1690 650.082 1690Z" stroke="white" stroke-opacity="0.04" stroke-width="2.78762"/>
<path d="M651.082 913H560.918C554.888 913 550 917.845 550 923.821V1013.18C550 1019.16 554.888 1024 560.918 1024H651.082C657.112 1024 662 1019.16 662 1013.18V923.821C662 917.845 657.112 913 651.082 913Z" stroke="white" stroke-opacity="0.04" stroke-width="2.78762"/>
<path d="M650.082 1912H559.918C553.888 1912 549 1916.84 549 1922.82V2012.18C549 2018.16 553.888 2023 559.918 2023H650.082C656.112 2023 661 2018.16 661 2012.18V1922.82C661 1916.84 656.112 1912 650.082 1912Z" stroke="white" stroke-opacity="0.04" stroke-width="2.78762"/>
<path d="M1095.08 467H1004.92C998.888 467 994 471.845 994 477.821V567.179C994 573.155 998.888 578 1004.92 578H1095.08C1101.11 578 1106 573.155 1106 567.179V477.821C1106 471.845 1101.11 467 1095.08 467Z" stroke="white" stroke-opacity="0.04" stroke-width="2.78762"/>
<path d="M1095.08 1466H1004.92C998.888 1466 994 1470.84 994 1476.82V1566.18C994 1572.16 998.888 1577 1004.92 1577H1095.08C1101.11 1577 1106 1572.16 1106 1566.18V1476.82C1106 1470.84 1101.11 1466 1095.08 1466Z" stroke="white" stroke-opacity="0.04" stroke-width="2.78762"/>
<path d="M1095.08 689H1004.92C998.888 689 994 693.888 994 699.918V790.082C994 796.112 998.888 801 1004.92 801H1095.08C1101.11 801 1106 796.112 1106 790.082V699.918C1106 693.888 1101.11 689 1095.08 689Z" stroke="white" stroke-opacity="0.04" stroke-width="2.78762"/>
<path d="M1095.08 1690H1004.92C998.888 1690 994 1694.84 994 1700.82V1790.18C994 1796.16 998.888 1801 1004.92 1801H1095.08C1101.11 1801 1106 1796.16 1106 1790.18V1700.82C1106 1694.84 1101.11 1690 1095.08 1690Z" stroke="white" stroke-opacity="0.04" stroke-width="2.78762"/>
<path d="M1095.18 913H1005.82C999.845 913 995 917.845 995 923.821V1013.18C995 1019.16 999.845 1024 1005.82 1024H1095.18C1101.16 1024 1106 1019.16 1106 1013.18V923.821C1106 917.845 1101.16 913 1095.18 913Z" stroke="white" stroke-opacity="0.04" stroke-width="2.78762"/>
<path d="M1095.08 1912H1004.92C998.888 1912 994 1916.84 994 1922.82V2012.18C994 2018.16 998.888 2023 1004.92 2023H1095.08C1101.11 2023 1106 2018.16 1106 2012.18V1922.82C1106 1916.84 1101.11 1912 1095.08 1912Z" stroke="white" stroke-opacity="0.04" stroke-width="2.78762"/>
<path d="M427.179 467H337.821C331.845 467 327 471.845 327 477.821V567.179C327 573.155 331.845 578 337.821 578H427.179C433.155 578 438 573.155 438 567.179V477.821C438 471.845 433.155 467 427.179 467Z" stroke="white" stroke-opacity="0.04" stroke-width="2.78762"/>
<path d="M427.179 1466H337.821C331.845 1466 327 1470.84 327 1476.82V1566.18C327 1572.16 331.845 1577 337.821 1577H427.179C433.155 1577 438 1572.16 438 1566.18V1476.82C438 1470.84 433.155 1466 427.179 1466Z" stroke="white" stroke-opacity="0.04" stroke-width="2.78762"/>
<path d="M427.179 689H337.821C331.845 689 327 693.888 327 699.918V790.082C327 796.112 331.845 801 337.821 801H427.179C433.155 801 438 796.112 438 790.082V699.918C438 693.888 433.155 689 427.179 689Z" stroke="white" stroke-opacity="0.04" stroke-width="2.78762"/>
<path d="M427.179 1690H337.821C331.845 1690 327 1694.84 327 1700.82V1790.18C327 1796.16 331.845 1801 337.821 1801H427.179C433.155 1801 438 1796.16 438 1790.18V1700.82C438 1694.84 433.155 1690 427.179 1690Z" stroke="white" stroke-opacity="0.04" stroke-width="2.78762"/>
<path d="M427.277 913H338.723C332.801 913 328 917.845 328 923.821V1013.18C328 1019.16 332.801 1024 338.723 1024H427.277C433.199 1024 438 1019.16 438 1013.18V923.821C438 917.845 433.199 913 427.277 913Z" stroke="white" stroke-opacity="0.04" stroke-width="2.78762"/>
<path d="M427.179 1912H337.821C331.845 1912 327 1916.84 327 1922.82V2012.18C327 2018.16 331.845 2023 337.821 2023H427.179C433.155 2023 438 2018.16 438 2012.18V1922.82C438 1916.84 433.155 1912 427.179 1912Z" stroke="white" stroke-opacity="0.04" stroke-width="2.78762"/>
<path d="M872.179 689H782.821C776.845 689 772 693.888 772 699.918V790.082C772 796.112 776.845 801 782.821 801H872.179C878.155 801 883 796.112 883 790.082V699.918C883 693.888 878.155 689 872.179 689Z" stroke="white" stroke-opacity="0.04" stroke-width="2.78762"/>
<path d="M871.277 1690H782.723C776.801 1690 772 1694.84 772 1700.82V1790.18C772 1796.16 776.801 1801 782.723 1801H871.277C877.199 1801 882 1796.16 882 1790.18V1700.82C882 1694.84 877.199 1690 871.277 1690Z" stroke="white" stroke-opacity="0.04" stroke-width="2.78762"/>
<path d="M872.277 913H783.723C777.801 913 773 917.845 773 923.821V1013.18C773 1019.16 777.801 1024 783.723 1024H872.277C878.199 1024 883 1019.16 883 1013.18V923.821C883 917.845 878.199 913 872.277 913Z" stroke="white" stroke-opacity="0.04" stroke-width="2.78762"/>
<path d="M872.179 1912H782.821C776.845 1912 772 1916.84 772 1922.82V2012.18C772 2018.16 776.845 2023 782.821 2023H872.179C878.155 2023 883 2018.16 883 2012.18V1922.82C883 1916.84 878.155 1912 872.179 1912Z" stroke="white" stroke-opacity="0.04" stroke-width="2.78762"/>
<path d="M1317.28 243H1228.72C1222.8 243 1218 247.845 1218 253.821V343.179C1218 349.155 1222.8 354 1228.72 354H1317.28C1323.2 354 1328 349.155 1328 343.179V253.821C1328 247.845 1323.2 243 1317.28 243Z" stroke="white" stroke-opacity="0.04" stroke-width="2.78762"/>
<path d="M1316.28 1243H1227.72C1221.8 1243 1217 1247.89 1217 1253.92V1344.08C1217 1350.11 1221.8 1355 1227.72 1355H1316.28C1322.2 1355 1327 1350.11 1327 1344.08V1253.92C1327 1247.89 1322.2 1243 1316.28 1243Z" stroke="white" stroke-opacity="0.04" stroke-width="2.78762"/>
<path d="M1317.28 467H1228.72C1222.8 467 1218 471.845 1218 477.821V567.179C1218 573.155 1222.8 578 1228.72 578H1317.28C1323.2 578 1328 573.155 1328 567.179V477.821C1328 471.845 1323.2 467 1317.28 467Z" stroke="white" stroke-opacity="0.04" stroke-width="2.78762"/>
<path d="M1316.28 1466H1227.72C1221.8 1466 1217 1470.84 1217 1476.82V1566.18C1217 1572.16 1221.8 1577 1227.72 1577H1316.28C1322.2 1577 1327 1572.16 1327 1566.18V1476.82C1327 1470.84 1322.2 1466 1316.28 1466Z" stroke="white" stroke-opacity="0.04" stroke-width="2.78762"/>
<path d="M1317.28 689H1228.72C1222.8 689 1218 693.888 1218 699.918V790.082C1218 796.112 1222.8 801 1228.72 801H1317.28C1323.2 801 1328 796.112 1328 790.082V699.918C1328 693.888 1323.2 689 1317.28 689Z" stroke="white" stroke-opacity="0.04" stroke-width="2.78762"/>
<path d="M1316.28 1690H1227.72C1221.8 1690 1217 1694.84 1217 1700.82V1790.18C1217 1796.16 1221.8 1801 1227.72 1801H1316.28C1322.2 1801 1327 1796.16 1327 1790.18V1700.82C1327 1694.84 1322.2 1690 1316.28 1690Z" stroke="white" stroke-opacity="0.04" stroke-width="2.78762"/>
<path d="M1318.18 913H1228.82C1222.84 913 1218 917.845 1218 923.821V1013.18C1218 1019.16 1222.84 1024 1228.82 1024H1318.18C1324.16 1024 1329 1019.16 1329 1013.18V923.821C1329 917.845 1324.16 913 1318.18 913Z" stroke="white" stroke-opacity="0.04" stroke-width="2.78762"/>
<path d="M1317.28 1912H1228.72C1222.8 1912 1218 1916.84 1218 1922.82V2012.18C1218 2018.16 1222.8 2023 1228.72 2023H1317.28C1323.2 2023 1328 2018.16 1328 2012.18V1922.82C1328 1916.84 1323.2 1912 1317.28 1912Z" stroke="white" stroke-opacity="0.04" stroke-width="2.78762"/>
<path d="M93.9 131H5.1C-1.03036 131 -6 135.97 -6 142.1V230.9C-6 237.03 -1.03036 242 5.1 242H93.9C100.03 242 105 237.03 105 230.9V142.1C105 135.97 100.03 131 93.9 131Z" fill="url(#paint3_linear_158_8528)" fill-opacity="0.05"/>
<path d="M92.9 1131H4.1C-2.03036 1131 -7 1136.01 -7 1142.2V1231.8C-7 1237.99 -2.03036 1243 4.1 1243H92.9C99.0304 1243 104 1237.99 104 1231.8V1142.2C104 1136.01 99.0304 1131 92.9 1131Z" fill="url(#paint4_linear_158_8528)" fill-opacity="0.05"/>
<path d="M94.1792 354H4.82076C-1.15538 354 -6 358.888 -6 364.918V455.082C-6 461.112 -1.15538 466 4.82076 466H94.1792C100.155 466 105 461.112 105 455.082V364.918C105 358.888 100.155 354 94.1792 354Z" stroke="white" stroke-opacity="0.04" stroke-width="2.78762"/>
<path d="M93.2767 1355H4.72327C-1.19903 1355 -6 1359.8 -6 1365.72V1454.28C-6 1460.2 -1.19903 1465 4.72327 1465H93.2767C99.199 1465 104 1460.2 104 1454.28V1365.72C104 1359.8 99.199 1355 93.2767 1355Z" stroke="white" stroke-opacity="0.04" stroke-width="2.78762"/>
<path d="M93.9 578H5.1C-1.03036 578 -6 582.97 -6 589.1V677.9C-6 684.03 -1.03036 689 5.1 689H93.9C100.03 689 105 684.03 105 677.9V589.1C105 582.97 100.03 578 93.9 578Z" fill="url(#paint5_linear_158_8528)" fill-opacity="0.05"/>
<path d="M92.9 1577H4.1C-2.03036 1577 -7 1582.01 -7 1588.2V1677.8C-7 1683.99 -2.03036 1689 4.1 1689H92.9C99.0304 1689 104 1683.99 104 1677.8V1588.2C104 1582.01 99.0304 1577 92.9 1577Z" fill="url(#paint6_linear_158_8528)" fill-opacity="0.05"/>
<path d="M93.9 801H5.1C-1.03036 801 -6 806.014 -6 812.2V901.8C-6 907.986 -1.03036 913 5.1 913H93.9C100.03 913 105 907.986 105 901.8V812.2C105 806.014 100.03 801 93.9 801Z" fill="url(#paint7_linear_158_8528)" fill-opacity="0.05"/>
<path d="M93.9 1800H5.1C-1.03036 1800 -6 1805.01 -6 1811.2V1900.8C-6 1906.99 -1.03036 1912 5.1 1912H93.9C100.03 1912 105 1906.99 105 1900.8V1811.2C105 1805.01 100.03 1800 93.9 1800Z" fill="url(#paint8_linear_158_8528)" fill-opacity="0.05"/>
<path d="M539.082 578H448.918C442.888 578 438 582.845 438 588.821V678.179C438 684.155 442.888 689 448.918 689H539.082C545.112 689 550 684.155 550 678.179V588.821C550 582.845 545.112 578 539.082 578Z" stroke="white" stroke-opacity="0.04" stroke-width="2.78762"/>
<path d="M538.179 1577H448.821C442.845 1577 438 1581.84 438 1587.82V1677.18C438 1683.16 442.845 1688 448.821 1688H538.179C544.155 1688 549 1683.16 549 1677.18V1587.82C549 1581.84 544.155 1577 538.179 1577Z" stroke="white" stroke-opacity="0.04" stroke-width="2.78762"/>
<path d="M539.082 801H448.918C442.888 801 438 805.888 438 811.918V902.082C438 908.112 442.888 913 448.918 913H539.082C545.112 913 550 908.112 550 902.082V811.918C550 805.888 545.112 801 539.082 801Z" stroke="white" stroke-opacity="0.04" stroke-width="2.78762"/>
<path d="M538.179 1801H448.821C442.845 1801 438 1805.8 438 1811.72V1900.28C438 1906.2 442.845 1911 448.821 1911H538.179C544.155 1911 549 1906.2 549 1900.28V1811.72C549 1805.8 544.155 1801 538.179 1801Z" stroke="white" stroke-opacity="0.04" stroke-width="2.78762"/>
<path d="M983.179 578H893.821C887.845 578 883 582.845 883 588.821V678.179C883 684.155 887.845 689 893.821 689H983.179C989.155 689 994 684.155 994 678.179V588.821C994 582.845 989.155 578 983.179 578Z" stroke="white" stroke-opacity="0.04" stroke-width="2.78762"/>
<path d="M983.082 1577H892.918C886.888 1577 882 1581.84 882 1587.82V1677.18C882 1683.16 886.888 1688 892.918 1688H983.082C989.112 1688 994 1683.16 994 1677.18V1587.82C994 1581.84 989.112 1577 983.082 1577Z" stroke="white" stroke-opacity="0.04" stroke-width="2.78762"/>
<path d="M984.082 801H893.918C887.888 801 883 805.888 883 811.918V902.082C883 908.112 887.888 913 893.918 913H984.082C990.112 913 995 908.112 995 902.082V811.918C995 805.888 990.112 801 984.082 801Z" stroke="white" stroke-opacity="0.04" stroke-width="2.78762"/>
<path d="M983.179 1801H893.821C887.845 1801 883 1805.8 883 1811.72V1900.28C883 1906.2 887.845 1911 893.821 1911H983.179C989.155 1911 994 1906.2 994 1900.28V1811.72C994 1805.8 989.155 1801 983.179 1801Z" stroke="white" stroke-opacity="0.04" stroke-width="2.78762"/>
<path d="M316.179 132H226.821C220.845 132 216 136.801 216 142.723V231.277C216 237.199 220.845 242 226.821 242H316.179C322.155 242 327 237.199 327 231.277V142.723C327 136.801 322.155 132 316.179 132Z" stroke="url(#paint9_linear_158_8528)" stroke-opacity="0.04" stroke-width="2.78762"/>
<path d="M316.082 1131H225.918C219.888 1131 215 1135.84 215 1141.82V1231.18C215 1237.16 219.888 1242 225.918 1242H316.082C322.112 1242 327 1237.16 327 1231.18V1141.82C327 1135.84 322.112 1131 316.082 1131Z" stroke="url(#paint10_linear_158_8528)" stroke-opacity="0.04" stroke-width="2.78762"/>
<path d="M205.179 132H115.821C109.845 132 105 136.801 105 142.723V231.277C105 237.199 109.845 242 115.821 242H205.179C211.155 242 216 237.199 216 231.277V142.723C216 136.801 211.155 132 205.179 132Z" stroke="white" stroke-opacity="0.04" stroke-width="2.78762"/>
<path d="M204.179 1131H114.821C108.845 1131 104 1135.84 104 1141.82V1231.18C104 1237.16 108.845 1242 114.821 1242H204.179C210.155 1242 215 1237.16 215 1231.18V1141.82C215 1135.84 210.155 1131 204.179 1131Z" stroke="white" stroke-opacity="0.04" stroke-width="2.78762"/>
<path d="M316.7 354H226.3C220.059 354 215 359.014 215 365.2V454.8C215 460.986 220.059 466 226.3 466H316.7C322.941 466 328 460.986 328 454.8V365.2C328 359.014 322.941 354 316.7 354Z" fill="url(#paint11_linear_158_8528)" fill-opacity="0.05"/>
<path d="M315.8 1354H226.2C220.014 1354 215 1358.97 215 1365.1V1453.9C215 1460.03 220.014 1465 226.2 1465H315.8C321.986 1465 327 1460.03 327 1453.9V1365.1C327 1358.97 321.986 1354 315.8 1354Z" fill="url(#paint12_linear_158_8528)" fill-opacity="0.05"/>
<path d="M316.179 578H226.821C220.845 578 216 582.845 216 588.821V678.179C216 684.155 220.845 689 226.821 689H316.179C322.155 689 327 684.155 327 678.179V588.821C327 582.845 322.155 578 316.179 578Z" stroke="white" stroke-opacity="0.04" stroke-width="2.78762"/>
<path d="M316.082 1577H225.918C219.888 1577 215 1581.84 215 1587.82V1677.18C215 1683.16 219.888 1688 225.918 1688H316.082C322.112 1688 327 1683.16 327 1677.18V1587.82C327 1581.84 322.112 1577 316.082 1577Z" stroke="white" stroke-opacity="0.04" stroke-width="2.78762"/>
<path d="M317.179 801H227.821C221.845 801 217 805.888 217 811.918V902.082C217 908.112 221.845 913 227.821 913H317.179C323.155 913 328 908.112 328 902.082V811.918C328 805.888 323.155 801 317.179 801Z" stroke="white" stroke-opacity="0.04" stroke-width="2.78762"/>
<path d="M316.082 1801H225.918C219.888 1801 215 1805.8 215 1811.72V1900.28C215 1906.2 219.888 1911 225.918 1911H316.082C322.112 1911 327 1906.2 327 1900.28V1811.72C327 1805.8 322.112 1801 316.082 1801Z" stroke="white" stroke-opacity="0.04" stroke-width="2.78762"/>
<path d="M761.179 578H671.821C665.845 578 661 582.845 661 588.821V678.179C661 684.155 665.845 689 671.821 689H761.179C767.155 689 772 684.155 772 678.179V588.821C772 582.845 767.155 578 761.179 578Z" stroke="white" stroke-opacity="0.04" stroke-width="2.78762"/>
<path d="M761.179 1577H671.821C665.845 1577 661 1581.84 661 1587.82V1677.18C661 1683.16 665.845 1688 671.821 1688H761.179C767.155 1688 772 1683.16 772 1677.18V1587.82C772 1581.84 767.155 1577 761.179 1577Z" stroke="white" stroke-opacity="0.04" stroke-width="2.78762"/>
<path d="M762.179 801H672.821C666.845 801 662 805.888 662 811.918V902.082C662 908.112 666.845 913 672.821 913H762.179C768.155 913 773 908.112 773 902.082V811.918C773 805.888 768.155 801 762.179 801Z" stroke="white" stroke-opacity="0.04" stroke-width="2.78762"/>
<path d="M761.179 1801H671.821C665.845 1801 661 1805.8 661 1811.72V1900.28C661 1906.2 665.845 1911 671.821 1911H761.179C767.155 1911 772 1906.2 772 1900.28V1811.72C772 1805.8 767.155 1801 761.179 1801Z" stroke="white" stroke-opacity="0.04" stroke-width="2.78762"/>
<path d="M1207.08 132H1116.92C1110.89 132 1106 136.801 1106 142.723V231.277C1106 237.199 1110.89 242 1116.92 242H1207.08C1213.11 242 1218 237.199 1218 231.277V142.723C1218 136.801 1213.11 132 1207.08 132Z" stroke="url(#paint13_linear_158_8528)" stroke-opacity="0.04" stroke-width="2.78762"/>
<path d="M1206.18 1131H1116.82C1110.84 1131 1106 1135.84 1106 1141.82V1231.18C1106 1237.16 1110.84 1242 1116.82 1242H1206.18C1212.16 1242 1217 1237.16 1217 1231.18V1141.82C1217 1135.84 1212.16 1131 1206.18 1131Z" stroke="url(#paint14_linear_158_8528)" stroke-opacity="0.04" stroke-width="2.78762"/>
<path d="M1207.08 354H1116.92C1110.89 354 1106 358.888 1106 364.918V455.082C1106 461.112 1110.89 466 1116.92 466H1207.08C1213.11 466 1218 461.112 1218 455.082V364.918C1218 358.888 1213.11 354 1207.08 354Z" stroke="white" stroke-opacity="0.04" stroke-width="2.78762"/>
<path d="M1206.18 1355H1116.82C1110.84 1355 1106 1359.8 1106 1365.72V1454.28C1106 1460.2 1110.84 1465 1116.82 1465H1206.18C1212.16 1465 1217 1460.2 1217 1454.28V1365.72C1217 1359.8 1212.16 1355 1206.18 1355Z" stroke="white" stroke-opacity="0.04" stroke-width="2.78762"/>
<path d="M1207.08 578H1116.92C1110.89 578 1106 582.845 1106 588.821V678.179C1106 684.155 1110.89 689 1116.92 689H1207.08C1213.11 689 1218 684.155 1218 678.179V588.821C1218 582.845 1213.11 578 1207.08 578Z" stroke="white" stroke-opacity="0.04" stroke-width="2.78762"/>
<path d="M1206.18 1577H1116.82C1110.84 1577 1106 1581.84 1106 1587.82V1677.18C1106 1683.16 1110.84 1688 1116.82 1688H1206.18C1212.16 1688 1217 1683.16 1217 1677.18V1587.82C1217 1581.84 1212.16 1577 1206.18 1577Z" stroke="white" stroke-opacity="0.04" stroke-width="2.78762"/>
<path d="M1207.08 801H1116.92C1110.89 801 1106 805.888 1106 811.918V902.082C1106 908.112 1110.89 913 1116.92 913H1207.08C1213.11 913 1218 908.112 1218 902.082V811.918C1218 805.888 1213.11 801 1207.08 801Z" stroke="white" stroke-opacity="0.04" stroke-width="2.78762"/>
<path d="M1207.08 1801H1116.92C1110.89 1801 1106 1805.8 1106 1811.72V1900.28C1106 1906.2 1110.89 1911 1116.92 1911H1207.08C1213.11 1911 1218 1906.2 1218 1900.28V1811.72C1218 1805.8 1213.11 1801 1207.08 1801Z" stroke="white" stroke-opacity="0.04" stroke-width="2.78762"/>
<path d="M94.1792 21H4.82076C-1.15538 21 -6 25.8446 -6 31.8208V121.179C-6 127.155 -1.15538 132 4.82076 132H94.1792C100.155 132 105 127.155 105 121.179V31.8208C105 25.8446 100.155 21 94.1792 21Z" stroke="url(#paint15_linear_158_8528)" stroke-opacity="0.04" stroke-width="2.78762"/>
<path d="M93.2767 1019H4.72327C-1.19903 1019 -6 1023.89 -6 1029.92V1120.08C-6 1126.11 -1.19903 1131 4.72327 1131H93.2767C99.199 1131 104 1126.11 104 1120.08V1029.92C104 1023.89 99.199 1019 93.2767 1019Z" stroke="url(#paint16_linear_158_8528)" stroke-opacity="0.04" stroke-width="2.78762"/>
<path d="M94.1792 243H4.82076C-1.15538 243 -6 247.845 -6 253.821V343.179C-6 349.155 -1.15538 354 4.82076 354H94.1792C100.155 354 105 349.155 105 343.179V253.821C105 247.845 100.155 243 94.1792 243Z" stroke="white" stroke-opacity="0.04" stroke-width="2.78762"/>
<path d="M93.2767 1243H4.72327C-1.19903 1243 -6 1247.89 -6 1253.92V1344.08C-6 1350.11 -1.19903 1355 4.72327 1355H93.2767C99.199 1355 104 1350.11 104 1344.08V1253.92C104 1247.89 99.199 1243 93.2767 1243Z" stroke="white" stroke-opacity="0.04" stroke-width="2.78762"/>
<path d="M94.1792 467H4.82076C-1.15538 467 -6 471.845 -6 477.821V567.179C-6 573.155 -1.15538 578 4.82076 578H94.1792C100.155 578 105 573.155 105 567.179V477.821C105 471.845 100.155 467 94.1792 467Z" stroke="white" stroke-opacity="0.04" stroke-width="2.78762"/>
<path d="M93.2767 1466H4.72327C-1.19903 1466 -6 1470.84 -6 1476.82V1566.18C-6 1572.16 -1.19903 1577 4.72327 1577H93.2767C99.199 1577 104 1572.16 104 1566.18V1476.82C104 1470.84 99.199 1466 93.2767 1466Z" stroke="white" stroke-opacity="0.04" stroke-width="2.78762"/>
<path d="M94.1792 689H4.82076C-1.15538 689 -6 693.888 -6 699.918V790.082C-6 796.112 -1.15538 801 4.82076 801H94.1792C100.155 801 105 796.112 105 790.082V699.918C105 693.888 100.155 689 94.1792 689Z" stroke="white" stroke-opacity="0.04" stroke-width="2.78762"/>
<path d="M93.2767 1690H4.72327C-1.19903 1690 -6 1694.84 -6 1700.82V1790.18C-6 1796.16 -1.19903 1801 4.72327 1801H93.2767C99.199 1801 104 1796.16 104 1790.18V1700.82C104 1694.84 99.199 1690 93.2767 1690Z" stroke="white" stroke-opacity="0.04" stroke-width="2.78762"/>
<path d="M94.1792 913H4.82076C-1.15538 913 -6 917.845 -6 923.821V1013.18C-6 1019.16 -1.15538 1024 4.82076 1024H94.1792C100.155 1024 105 1019.16 105 1013.18V923.821C105 917.845 100.155 913 94.1792 913Z" stroke="white" stroke-opacity="0.04" stroke-width="2.78762"/>
<path d="M93.2767 1912H4.72327C-1.19903 1912 -6 1916.84 -6 1922.82V2012.18C-6 2018.16 -1.19903 2023 4.72327 2023H93.2767C99.199 2023 104 2018.16 104 2012.18V1922.82C104 1916.84 99.199 1912 93.2767 1912Z" stroke="white" stroke-opacity="0.04" stroke-width="2.78762"/>
<path d="M539.082 21H448.918C442.888 21 438 25.8446 438 31.8208V121.179C438 127.155 442.888 132 448.918 132H539.082C545.112 132 550 127.155 550 121.179V31.8208C550 25.8446 545.112 21 539.082 21Z" stroke="url(#paint17_linear_158_8528)" stroke-opacity="0.18" stroke-width="2.78762"/>
<path d="M539.082 689H448.918C442.888 689 438 693.888 438 699.918V790.082C438 796.112 442.888 801 448.918 801H539.082C545.112 801 550 796.112 550 790.082V699.918C550 693.888 545.112 689 539.082 689Z" stroke="white" stroke-opacity="0.04" stroke-width="2.78762"/>
<path d="M538.179 1690H448.821C442.845 1690 438 1694.84 438 1700.82V1790.18C438 1796.16 442.845 1801 448.821 1801H538.179C544.155 1801 549 1796.16 549 1790.18V1700.82C549 1694.84 544.155 1690 538.179 1690Z" stroke="white" stroke-opacity="0.04" stroke-width="2.78762"/>
<path d="M539.082 913H448.918C442.888 913 438 917.845 438 923.821V1013.18C438 1019.16 442.888 1024 448.918 1024H539.082C545.112 1024 550 1019.16 550 1013.18V923.821C550 917.845 545.112 913 539.082 913Z" stroke="white" stroke-opacity="0.04" stroke-width="2.78762"/>
<path d="M538.179 1912H448.821C442.845 1912 438 1916.84 438 1922.82V2012.18C438 2018.16 442.845 2023 448.821 2023H538.179C544.155 2023 549 2018.16 549 2012.18V1922.82C549 1916.84 544.155 1912 538.179 1912Z" stroke="white" stroke-opacity="0.04" stroke-width="2.78762"/>
<path d="M983.179 21H893.821C887.845 21 883 25.8446 883 31.8208V121.179C883 127.155 887.845 132 893.821 132H983.179C989.155 132 994 127.155 994 121.179V31.8208C994 25.8446 989.155 21 983.179 21Z" stroke="url(#paint18_linear_158_8528)" stroke-opacity="0.18" stroke-width="2.78762"/>
<path d="M983.179 689H893.821C887.845 689 883 693.888 883 699.918V790.082C883 796.112 887.845 801 893.821 801H983.179C989.155 801 994 796.112 994 790.082V699.918C994 693.888 989.155 689 983.179 689Z" stroke="white" stroke-opacity="0.04" stroke-width="2.78762"/>
<path d="M983.082 1690H892.918C886.888 1690 882 1694.84 882 1700.82V1790.18C882 1796.16 886.888 1801 892.918 1801H983.082C989.112 1801 994 1796.16 994 1790.18V1700.82C994 1694.84 989.112 1690 983.082 1690Z" stroke="white" stroke-opacity="0.04" stroke-width="2.78762"/>
<path d="M984.082 913H893.918C887.888 913 883 917.845 883 923.821V1013.18C883 1019.16 887.888 1024 893.918 1024H984.082C990.112 1024 995 1019.16 995 1013.18V923.821C995 917.845 990.112 913 984.082 913Z" stroke="white" stroke-opacity="0.04" stroke-width="2.78762"/>
<path d="M983.179 1912H893.821C887.845 1912 883 1916.84 883 1922.82V2012.18C883 2018.16 887.845 2023 893.821 2023H983.179C989.155 2023 994 2018.16 994 2012.18V1922.82C994 1916.84 989.155 1912 983.179 1912Z" stroke="white" stroke-opacity="0.04" stroke-width="2.78762"/>
<path d="M316.179 243H226.821C220.845 243 216 247.845 216 253.821V343.179C216 349.155 220.845 354 226.821 354H316.179C322.155 354 327 349.155 327 343.179V253.821C327 247.845 322.155 243 316.179 243Z" stroke="white" stroke-opacity="0.04" stroke-width="2.78762"/>
<path d="M316.082 1243H225.918C219.888 1243 215 1247.89 215 1253.92V1344.08C215 1350.11 219.888 1355 225.918 1355H316.082C322.112 1355 327 1350.11 327 1344.08V1253.92C327 1247.89 322.112 1243 316.082 1243Z" stroke="white" stroke-opacity="0.04" stroke-width="2.78762"/>
<path d="M316.179 467H226.821C220.845 467 216 471.845 216 477.821V567.179C216 573.155 220.845 578 226.821 578H316.179C322.155 578 327 573.155 327 567.179V477.821C327 471.845 322.155 467 316.179 467Z" stroke="white" stroke-opacity="0.04" stroke-width="2.78762"/>
<path d="M316.082 1466H225.918C219.888 1466 215 1470.84 215 1476.82V1566.18C215 1572.16 219.888 1577 225.918 1577H316.082C322.112 1577 327 1572.16 327 1566.18V1476.82C327 1470.84 322.112 1466 316.082 1466Z" stroke="white" stroke-opacity="0.04" stroke-width="2.78762"/>
<path d="M316.179 689H226.821C220.845 689 216 693.888 216 699.918V790.082C216 796.112 220.845 801 226.821 801H316.179C322.155 801 327 796.112 327 790.082V699.918C327 693.888 322.155 689 316.179 689Z" stroke="white" stroke-opacity="0.04" stroke-width="2.78762"/>
<path d="M316.082 1690H225.918C219.888 1690 215 1694.84 215 1700.82V1790.18C215 1796.16 219.888 1801 225.918 1801H316.082C322.112 1801 327 1796.16 327 1790.18V1700.82C327 1694.84 322.112 1690 316.082 1690Z" stroke="white" stroke-opacity="0.04" stroke-width="2.78762"/>
<path d="M317.179 913H227.821C221.845 913 217 917.845 217 923.821V1013.18C217 1019.16 221.845 1024 227.821 1024H317.179C323.155 1024 328 1019.16 328 1013.18V923.821C328 917.845 323.155 913 317.179 913Z" stroke="white" stroke-opacity="0.04" stroke-width="2.78762"/>
<path d="M316.082 1912H225.918C219.888 1912 215 1916.84 215 1922.82V2012.18C215 2018.16 219.888 2023 225.918 2023H316.082C322.112 2023 327 2018.16 327 2012.18V1922.82C327 1916.84 322.112 1912 316.082 1912Z" stroke="white" stroke-opacity="0.04" stroke-width="2.78762"/>
<path d="M761.179 689H671.821C665.845 689 661 693.888 661 699.918V790.082C661 796.112 665.845 801 671.821 801H761.179C767.155 801 772 796.112 772 790.082V699.918C772 693.888 767.155 689 761.179 689Z" stroke="white" stroke-opacity="0.04" stroke-width="2.78762"/>
<path d="M761.179 1690H671.821C665.845 1690 661 1694.84 661 1700.82V1790.18C661 1796.16 665.845 1801 671.821 1801H761.179C767.155 1801 772 1796.16 772 1790.18V1700.82C772 1694.84 767.155 1690 761.179 1690Z" stroke="white" stroke-opacity="0.04" stroke-width="2.78762"/>
<path d="M762.179 913H672.821C666.845 913 662 917.845 662 923.821V1013.18C662 1019.16 666.845 1024 672.821 1024H762.179C768.155 1024 773 1019.16 773 1013.18V923.821C773 917.845 768.155 913 762.179 913Z" stroke="white" stroke-opacity="0.04" stroke-width="2.78762"/>
<path d="M761.179 1912H671.821C665.845 1912 661 1916.84 661 1922.82V2012.18C661 2018.16 665.845 2023 671.821 2023H761.179C767.155 2023 772 2018.16 772 2012.18V1922.82C772 1916.84 767.155 1912 761.179 1912Z" stroke="white" stroke-opacity="0.04" stroke-width="2.78762"/>
<path d="M1206.8 242H1117.2C1111.01 242 1106 247.059 1106 253.3V343.7C1106 349.941 1111.01 355 1117.2 355H1206.8C1212.99 355 1218 349.941 1218 343.7V253.3C1218 247.059 1212.99 242 1206.8 242Z" fill="url(#paint19_linear_158_8528)" fill-opacity="0.05"/>
<path d="M1206.7 1243H1116.3C1110.06 1243 1105 1248.01 1105 1254.2V1343.8C1105 1349.99 1110.06 1355 1116.3 1355H1206.7C1212.94 1355 1218 1349.99 1218 1343.8V1254.2C1218 1248.01 1212.94 1243 1206.7 1243Z" fill="url(#paint20_linear_158_8528)" fill-opacity="0.05"/>
<path d="M1207.08 467H1116.92C1110.89 467 1106 471.845 1106 477.821V567.179C1106 573.155 1110.89 578 1116.92 578H1207.08C1213.11 578 1218 573.155 1218 567.179V477.821C1218 471.845 1213.11 467 1207.08 467Z" stroke="white" stroke-opacity="0.04" stroke-width="2.78762"/>
<path d="M1206.18 1466H1116.82C1110.84 1466 1106 1470.84 1106 1476.82V1566.18C1106 1572.16 1110.84 1577 1116.82 1577H1206.18C1212.16 1577 1217 1572.16 1217 1566.18V1476.82C1217 1470.84 1212.16 1466 1206.18 1466Z" stroke="white" stroke-opacity="0.04" stroke-width="2.78762"/>
<path d="M1207.08 689H1116.92C1110.89 689 1106 693.888 1106 699.918V790.082C1106 796.112 1110.89 801 1116.92 801H1207.08C1213.11 801 1218 796.112 1218 790.082V699.918C1218 693.888 1213.11 689 1207.08 689Z" stroke="white" stroke-opacity="0.04" stroke-width="2.78762"/>
<path d="M1206.18 1690H1116.82C1110.84 1690 1106 1694.84 1106 1700.82V1790.18C1106 1796.16 1110.84 1801 1116.82 1801H1206.18C1212.16 1801 1217 1796.16 1217 1790.18V1700.82C1217 1694.84 1212.16 1690 1206.18 1690Z" stroke="white" stroke-opacity="0.04" stroke-width="2.78762"/>
<path d="M1207.08 913H1116.92C1110.89 913 1106 917.845 1106 923.821V1013.18C1106 1019.16 1110.89 1024 1116.92 1024H1207.08C1213.11 1024 1218 1019.16 1218 1013.18V923.821C1218 917.845 1213.11 913 1207.08 913Z" stroke="white" stroke-opacity="0.04" stroke-width="2.78762"/>
<path d="M1207.08 1912H1116.92C1110.89 1912 1106 1916.84 1106 1922.82V2012.18C1106 2018.16 1110.89 2023 1116.92 2023H1207.08C1213.11 2023 1218 2018.16 1218 2012.18V1922.82C1218 1916.84 1213.11 1912 1207.08 1912Z" stroke="white" stroke-opacity="0.04" stroke-width="2.78762"/>
<path d="M1428.18 132H1338.82C1332.84 132 1328 136.801 1328 142.723V231.277C1328 237.199 1332.84 242 1338.82 242H1428.18C1434.16 242 1439 237.199 1439 231.277V142.723C1439 136.801 1434.16 132 1428.18 132Z" stroke="white" stroke-opacity="0.04" stroke-width="2.78762"/>
<path d="M1428.08 1131H1337.92C1331.89 1131 1327 1135.84 1327 1141.82V1231.18C1327 1237.16 1331.89 1242 1337.92 1242H1428.08C1434.11 1242 1439 1237.16 1439 1231.18V1141.82C1439 1135.84 1434.11 1131 1428.08 1131Z" stroke="white" stroke-opacity="0.04" stroke-width="2.78762"/>
<path d="M1428.18 354H1338.82C1332.84 354 1328 358.888 1328 364.918V455.082C1328 461.112 1332.84 466 1338.82 466H1428.18C1434.16 466 1439 461.112 1439 455.082V364.918C1439 358.888 1434.16 354 1428.18 354Z" stroke="white" stroke-opacity="0.04" stroke-width="2.78762"/>
<path d="M1428.08 1355H1337.92C1331.89 1355 1327 1359.8 1327 1365.72V1454.28C1327 1460.2 1331.89 1465 1337.92 1465H1428.08C1434.11 1465 1439 1460.2 1439 1454.28V1365.72C1439 1359.8 1434.11 1355 1428.08 1355Z" stroke="white" stroke-opacity="0.04" stroke-width="2.78762"/>
<path d="M1428.18 578H1338.82C1332.84 578 1328 582.845 1328 588.821V678.179C1328 684.155 1332.84 689 1338.82 689H1428.18C1434.16 689 1439 684.155 1439 678.179V588.821C1439 582.845 1434.16 578 1428.18 578Z" stroke="white" stroke-opacity="0.04" stroke-width="2.78762"/>
<path d="M1428.08 1577H1337.92C1331.89 1577 1327 1581.84 1327 1587.82V1677.18C1327 1683.16 1331.89 1688 1337.92 1688H1428.08C1434.11 1688 1439 1683.16 1439 1677.18V1587.82C1439 1581.84 1434.11 1577 1428.08 1577Z" stroke="white" stroke-opacity="0.04" stroke-width="2.78762"/>
<path d="M1429.18 801H1339.82C1333.84 801 1329 805.888 1329 811.918V902.082C1329 908.112 1333.84 913 1339.82 913H1429.18C1435.16 913 1440 908.112 1440 902.082V811.918C1440 805.888 1435.16 801 1429.18 801Z" stroke="white" stroke-opacity="0.04" stroke-width="2.78762"/>
<path d="M1428.18 1801H1338.82C1332.84 1801 1328 1805.8 1328 1811.72V1900.28C1328 1906.2 1332.84 1911 1338.82 1911H1428.18C1434.16 1911 1439 1906.2 1439 1900.28V1811.72C1439 1805.8 1434.16 1801 1428.18 1801Z" stroke="white" stroke-opacity="0.04" stroke-width="2.78762"/>
<path d="M1428.8 20H1339.2C1333.01 20 1328 25.0144 1328 31.2V120.8C1328 126.986 1333.01 132 1339.2 132H1428.8C1434.99 132 1440 126.986 1440 120.8V31.2C1440 25.0144 1434.99 20 1428.8 20Z" fill="url(#paint21_linear_158_8528)" fill-opacity="0.05"/>
<path d="M1427.8 1019H1338.2C1332.01 1019 1327 1024.01 1327 1030.2V1119.8C1327 1125.99 1332.01 1131 1338.2 1131H1427.8C1433.99 1131 1439 1125.99 1439 1119.8V1030.2C1439 1024.01 1433.99 1019 1427.8 1019Z" fill="url(#paint22_linear_158_8528)" fill-opacity="0.05"/>
<path d="M1428.18 243H1338.82C1332.84 243 1328 247.845 1328 253.821V343.179C1328 349.155 1332.84 354 1338.82 354H1428.18C1434.16 354 1439 349.155 1439 343.179V253.821C1439 247.845 1434.16 243 1428.18 243Z" stroke="white" stroke-opacity="0.04" stroke-width="2.78762"/>
<path d="M1428.08 1243H1337.92C1331.89 1243 1327 1247.89 1327 1253.92V1344.08C1327 1350.11 1331.89 1355 1337.92 1355H1428.08C1434.11 1355 1439 1350.11 1439 1344.08V1253.92C1439 1247.89 1434.11 1243 1428.08 1243Z" stroke="white" stroke-opacity="0.04" stroke-width="2.78762"/>
<path d="M1428.8 466H1339.2C1333.01 466 1328 471.014 1328 477.2V566.8C1328 572.986 1333.01 578 1339.2 578H1428.8C1434.99 578 1440 572.986 1440 566.8V477.2C1440 471.014 1434.99 466 1428.8 466Z" fill="url(#paint23_linear_158_8528)" fill-opacity="0.05"/>
<path d="M1427.8 1465H1338.2C1332.01 1465 1327 1470.06 1327 1476.3V1566.7C1327 1572.94 1332.01 1578 1338.2 1578H1427.8C1433.99 1578 1439 1572.94 1439 1566.7V1476.3C1439 1470.06 1433.99 1465 1427.8 1465Z" fill="url(#paint24_linear_158_8528)" fill-opacity="0.05"/>
<path d="M1206.7 801H1116.3C1110.06 801 1105 806.014 1105 812.2V901.8C1105 907.986 1110.06 913 1116.3 913H1206.7C1212.94 913 1218 907.986 1218 901.8V812.2C1218 806.014 1212.94 801 1206.7 801Z" fill="url(#paint25_linear_158_8528)" fill-opacity="0.05"/>
<path d="M1205.7 1801H1115.3C1109.06 1801 1104 1805.97 1104 1812.1V1900.9C1104 1907.03 1109.06 1912 1115.3 1912H1205.7C1211.94 1912 1217 1907.03 1217 1900.9V1812.1C1217 1805.97 1211.94 1801 1205.7 1801Z" fill="url(#paint26_linear_158_8528)" fill-opacity="0.05"/>
<path d="M94.8 354H5.2C-0.98559 354 -6 359.014 -6 365.2V454.8C-6 460.986 -0.98559 466 5.2 466H94.8C100.986 466 106 460.986 106 454.8V365.2C106 359.014 100.986 354 94.8 354Z" fill="url(#paint27_linear_158_8528)" fill-opacity="0.05"/>
<path d="M93.9 1353H5.1C-1.03036 1353 -6 1357.97 -6 1364.1V1452.9C-6 1459.03 -1.03036 1464 5.1 1464H93.9C100.03 1464 105 1459.03 105 1452.9V1364.1C105 1357.97 100.03 1353 93.9 1353Z" fill="url(#paint28_linear_158_8528)" fill-opacity="0.05"/>
<path d="M1427.8 801H1338.2C1332.01 801 1327 806.014 1327 812.2V901.8C1327 907.986 1332.01 913 1338.2 913H1427.8C1433.99 913 1439 907.986 1439 901.8V812.2C1439 806.014 1433.99 801 1427.8 801Z" fill="url(#paint29_linear_158_8528)" fill-opacity="0.05"/>
<path d="M1427.7 1801H1337.3C1331.06 1801 1326 1805.97 1326 1812.1V1900.9C1326 1907.03 1331.06 1912 1337.3 1912H1427.7C1433.94 1912 1439 1907.03 1439 1900.9V1812.1C1439 1805.97 1433.94 1801 1427.7 1801Z" fill="url(#paint30_linear_158_8528)" fill-opacity="0.05"/>
<path d="M1428.18 689H1338.82C1332.84 689 1328 693.888 1328 699.918V790.082C1328 796.112 1332.84 801 1338.82 801H1428.18C1434.16 801 1439 796.112 1439 790.082V699.918C1439 693.888 1434.16 689 1428.18 689Z" stroke="white" stroke-opacity="0.04" stroke-width="2.78762"/>
<path d="M1428.08 1690H1337.92C1331.89 1690 1327 1694.84 1327 1700.82V1790.18C1327 1796.16 1331.89 1801 1337.92 1801H1428.08C1434.11 1801 1439 1796.16 1439 1790.18V1700.82C1439 1694.84 1434.11 1690 1428.08 1690Z" stroke="white" stroke-opacity="0.04" stroke-width="2.78762"/>
<path d="M1429.18 913H1339.82C1333.84 913 1329 917.845 1329 923.821V1013.18C1329 1019.16 1333.84 1024 1339.82 1024H1429.18C1435.16 1024 1440 1019.16 1440 1013.18V923.821C1440 917.845 1435.16 913 1429.18 913Z" stroke="white" stroke-opacity="0.04" stroke-width="2.78762"/>
<path d="M1428.18 1912H1338.82C1332.84 1912 1328 1916.84 1328 1922.82V2012.18C1328 2018.16 1332.84 2023 1338.82 2023H1428.18C1434.16 2023 1439 2018.16 1439 2012.18V1922.82C1439 1916.84 1434.16 1912 1428.18 1912Z" stroke="white" stroke-opacity="0.04" stroke-width="2.78762"/>
</g>
<defs>
<filter id="filter0_f_158_8528" x="-1169.06" y="-1021.9" width="2881.37" height="2881.37" filterUnits="userSpaceOnUse" color-interpolation-filters="sRGB">
<feFlood flood-opacity="0" result="BackgroundImageFix"/>
<feBlend mode="normal" in="SourceGraphic" in2="BackgroundImageFix" result="shape"/>
<feGaussianBlur stdDeviation="696.905" result="effect1_foregroundBlur_158_8528"/>
</filter>
<filter id="filter1_f_158_8528" x="-1169.7" y="-22.5635" width="2881.37" height="2881.37" filterUnits="userSpaceOnUse" color-interpolation-filters="sRGB">
<feFlood flood-opacity="0" result="BackgroundImageFix"/>
<feBlend mode="normal" in="SourceGraphic" in2="BackgroundImageFix" result="shape"/>
<feGaussianBlur stdDeviation="696.905" result="effect1_foregroundBlur_158_8528"/>
</filter>
<linearGradient id="paint0_linear_158_8528" x1="716.5" y1="-67" x2="716.5" y2="2028" gradientUnits="userSpaceOnUse">
<stop stop-color="#163027"/>
<stop offset="1" stop-color="#0C1D17"/>
</linearGradient>
<linearGradient id="paint1_linear_158_8528" x1="107.443" y1="129.208" x2="130.83" y2="114.547" gradientUnits="userSpaceOnUse">
<stop stop-color="white"/>
<stop offset="1" stop-color="white" stop-opacity="0"/>
</linearGradient>
<linearGradient id="paint2_linear_158_8528" x1="106.443" y1="1128.18" x2="129.948" y2="1113.58" gradientUnits="userSpaceOnUse">
<stop stop-color="white"/>
<stop offset="1" stop-color="white" stop-opacity="0"/>
</linearGradient>
<linearGradient id="paint3_linear_158_8528" x1="100.491" y1="135.162" x2="14.8125" y2="220.841" gradientUnits="userSpaceOnUse">
<stop stop-color="white"/>
<stop offset="0.51843" stop-color="white" stop-opacity="0"/>
</linearGradient>
<linearGradient id="paint4_linear_158_8528" x1="99.4906" y1="1135.2" x2="13.0441" y2="1220.87" gradientUnits="userSpaceOnUse">
<stop stop-color="white"/>
<stop offset="0.51843" stop-color="white" stop-opacity="0"/>
</linearGradient>
<linearGradient id="paint5_linear_158_8528" x1="62.3344" y1="633.5" x2="105" y2="582.856" gradientUnits="userSpaceOnUse">
<stop stop-color="white" stop-opacity="0"/>
<stop offset="1" stop-color="white"/>
</linearGradient>
<linearGradient id="paint6_linear_158_8528" x1="61.3344" y1="1633" x2="104.448" y2="1582.28" gradientUnits="userSpaceOnUse">
<stop stop-color="white" stop-opacity="0"/>
<stop offset="1" stop-color="white"/>
</linearGradient>
<linearGradient id="paint7_linear_158_8528" x1="62.3344" y1="857" x2="105.448" y2="806.281" gradientUnits="userSpaceOnUse">
<stop stop-color="white" stop-opacity="0"/>
<stop offset="1" stop-color="white"/>
</linearGradient>
<linearGradient id="paint8_linear_158_8528" x1="62.3344" y1="1856" x2="105.448" y2="1805.28" gradientUnits="userSpaceOnUse">
<stop stop-color="white" stop-opacity="0"/>
<stop offset="1" stop-color="white"/>
</linearGradient>
<linearGradient id="paint9_linear_158_8528" x1="215.651" y1="242.346" x2="277.599" y2="183.327" gradientUnits="userSpaceOnUse">
<stop stop-color="white"/>
<stop offset="1" stop-color="white" stop-opacity="0"/>
</linearGradient>
<linearGradient id="paint10_linear_158_8528" x1="214.648" y1="1242.35" x2="277.159" y2="1182.8" gradientUnits="userSpaceOnUse">
<stop stop-color="white"/>
<stop offset="1" stop-color="white" stop-opacity="0"/>
</linearGradient>
<linearGradient id="paint11_linear_158_8528" x1="323.409" y1="358.2" x2="170.675" y2="497.1" gradientUnits="userSpaceOnUse">
<stop stop-color="white" stop-opacity="0"/>
<stop offset="1" stop-color="white"/>
</linearGradient>
<linearGradient id="paint12_linear_158_8528" x1="322.45" y1="1358.16" x2="171.078" y2="1495.83" gradientUnits="userSpaceOnUse">
<stop stop-color="white" stop-opacity="0"/>
<stop offset="1" stop-color="white"/>
</linearGradient>
<linearGradient id="paint13_linear_158_8528" x1="1214.83" y1="240.27" x2="1156.95" y2="188.04" gradientUnits="userSpaceOnUse">
<stop stop-color="white"/>
<stop offset="1" stop-color="white" stop-opacity="0"/>
</linearGradient>
<linearGradient id="paint14_linear_158_8528" x1="1213.86" y1="1240.25" x2="1155.57" y2="1188.59" gradientUnits="userSpaceOnUse">
<stop stop-color="white"/>
<stop offset="1" stop-color="white" stop-opacity="0"/>
</linearGradient>
<linearGradient id="paint15_linear_158_8528" x1="47.7547" y1="71.6132" x2="102.208" y2="132.349" gradientUnits="userSpaceOnUse">
<stop offset="0.33162" stop-color="white" stop-opacity="0"/>
<stop offset="0.98746" stop-color="white"/>
</linearGradient>
<linearGradient id="paint16_linear_158_8528" x1="47.2704" y1="1070.07" x2="102.313" y2="1130.37" gradientUnits="userSpaceOnUse">
<stop offset="0.33162" stop-color="white" stop-opacity="0"/>
<stop offset="0.98746" stop-color="white"/>
</linearGradient>
<linearGradient id="paint17_linear_158_8528" x1="442.931" y1="132.349" x2="471.52" y2="99.6324" gradientUnits="userSpaceOnUse">
<stop stop-color="white"/>
<stop offset="1" stop-color="white" stop-opacity="0"/>
</linearGradient>
<linearGradient id="paint18_linear_158_8528" x1="990.858" y1="132.349" x2="955.604" y2="101.283" gradientUnits="userSpaceOnUse">
<stop stop-color="white"/>
<stop offset="1" stop-color="white" stop-opacity="0"/>
</linearGradient>
<linearGradient id="paint19_linear_158_8528" x1="1213.45" y1="246.237" x2="1126.23" y2="332.684" gradientUnits="userSpaceOnUse">
<stop offset="0.0078684" stop-color="white"/>
<stop offset="1" stop-color="white" stop-opacity="0"/>
</linearGradient>
<linearGradient id="paint20_linear_158_8528" x1="1213.41" y1="1247.2" x2="1126.96" y2="1334.42" gradientUnits="userSpaceOnUse">
<stop offset="0.0078684" stop-color="white"/>
<stop offset="1" stop-color="white" stop-opacity="0"/>
</linearGradient>
<linearGradient id="paint21_linear_158_8528" x1="1332.2" y1="87.55" x2="1328" y2="128.5" gradientUnits="userSpaceOnUse">
<stop stop-color="white" stop-opacity="0"/>
<stop offset="1" stop-color="white"/>
</linearGradient>
<linearGradient id="paint22_linear_158_8528" x1="1331.2" y1="1086.55" x2="1327" y2="1127.5" gradientUnits="userSpaceOnUse">
<stop stop-color="white" stop-opacity="0"/>
<stop offset="1" stop-color="white"/>
</linearGradient>
<linearGradient id="paint23_linear_158_8528" x1="1366.15" y1="496.45" x2="1349" y2="556.65" gradientUnits="userSpaceOnUse">
<stop stop-color="white" stop-opacity="0"/>
<stop offset="1" stop-color="white"/>
</linearGradient>
<linearGradient id="paint24_linear_158_8528" x1="1365.15" y1="1495.72" x2="1347.72" y2="1556.38" gradientUnits="userSpaceOnUse">
<stop stop-color="white" stop-opacity="0"/>
<stop offset="1" stop-color="white"/>
</linearGradient>
<linearGradient id="paint25_linear_158_8528" x1="1143.49" y1="831.45" x2="1126.47" y2="891.73" gradientUnits="userSpaceOnUse">
<stop stop-color="white" stop-opacity="0"/>
<stop offset="1" stop-color="white"/>
</linearGradient>
<linearGradient id="paint26_linear_158_8528" x1="1142.49" y1="1831.18" x2="1125.75" y2="1891" gradientUnits="userSpaceOnUse">
<stop stop-color="white" stop-opacity="0"/>
<stop offset="1" stop-color="white"/>
</linearGradient>
<linearGradient id="paint27_linear_158_8528" x1="32.15" y1="384.45" x2="15" y2="444.65" gradientUnits="userSpaceOnUse">
<stop stop-color="white" stop-opacity="0"/>
<stop offset="1" stop-color="white"/>
</linearGradient>
<linearGradient id="paint28_linear_158_8528" x1="31.8094" y1="1383.18" x2="14.8125" y2="1442.84" gradientUnits="userSpaceOnUse">
<stop stop-color="white" stop-opacity="0"/>
<stop offset="1" stop-color="white"/>
</linearGradient>
<linearGradient id="paint29_linear_158_8528" x1="1365.15" y1="831.45" x2="1348" y2="891.65" gradientUnits="userSpaceOnUse">
<stop stop-color="white" stop-opacity="0"/>
<stop offset="1" stop-color="white"/>
</linearGradient>
<linearGradient id="paint30_linear_158_8528" x1="1364.49" y1="1831.18" x2="1347.75" y2="1891" gradientUnits="userSpaceOnUse">
<stop stop-color="white" stop-opacity="0"/>
<stop offset="1" stop-color="white"/>
</linearGradient>
<clipPath id="clip0_158_8528">
<rect width="1440" height="2028" fill="white"/>
</clipPath>
</defs>
</svg>
