<?xml version="1.0" encoding="UTF-8"?>
<svg fill="none" viewBox="0 0 1920 1050" xmlns="http://www.w3.org/2000/svg">
<rect width="1920" height="1050" fill="url(#m)"/>
<g clip-path="url(#r)" fill="#fff" fill-opacity=".02">
<path d="m249.33 1049.3c-1.863 2.65-6.951-0.19-4.762-3.07 1.92-2.63 7.008 0.17 4.762 3.07z"/>
<path d="m756.1 1047.6c-3.129 0.98-4.205-0.09-3.187-3.22 3.149-0.94 4.224 0.14 3.187 3.22z"/>
<path d="m1879.3 1045.9c-3.15 0.97-4.23-0.1-3.19-3.21 3.13-0.95 4.18 0.1 3.19 3.21z"/>
<path d="m711.96 1041.7c-3.111 1.01-4.186-0.04-3.207-3.19 3.13-0.99 4.205 0.06 3.207 3.19z"/>
<path d="m1716.1 1037.9c-3.12 1-4.19-0.05-3.21-3.18 3.13-1 4.2 0.06 3.21 3.18z"/>
<path d="m985.27 1037.1c-1.556-0.15-4.666-0.46-6.221-0.61 0.019-1.46 0.038-4.38 0.038-5.83 1.479-0.04 4.435-0.08 5.933-0.12 0.058 1.65 0.192 4.93 0.25 6.56z"/>
<path d="m1673.9 1024.4c-3.15 0.9-4.2-0.2-3.15-3.26 3.19-0.92 4.23 0.17 3.15 3.26z"/>
<path d="m1026.9 1022.9c-3.11 1.04-4.18-0.02-3.2-3.14 3.13-1.04 4.2 0.02 3.2 3.14z"/>
<path d="m1854.6 1020.6c-3.1 1.07-4.19 0.04-3.27-3.11 3.09-1.07 4.19-0.03 3.27 3.11z"/>
<path d="m864.17 1013.1c-0.941 2-1.92 3.99-2.88 6-1.613-2.15-3.264-4.27-4.935-6.4 2.612 0.09 5.223 0.21 7.815 0.4z"/>
<path d="m1497 1010.9c-1.92 2.59-7.06-0.23-4.74-3.09 1.92-2.55 7.09 0.23 4.74 3.09z"/>
<path d="m921.45 1011.2c-3.092 1.06-4.186 0.02-3.226-3.12 3.11-1.06 4.186-0.02 3.226 3.12z"/>
<path d="m1716.1 1005.6c-3.13 0.94-4.18-0.14-3.13-3.24 3.15-0.94 4.19 0.13 3.13 3.24z"/>
<path d="m1041.3 992.06c3.57 3.778 3.59 8.421 0 12.231-1.99-2.11-4.01-4.2-6.03-6.287 2-1.994 4.02-3.969 6.03-5.944z"/>
<path d="m740.76 999.84c-2.707 0.847-3.61-0.057-2.746-2.742 2.727-0.843 3.648 0.077 2.746 2.742z"/>
<path d="m716.06 993.4c-2.016 2.589-2.515 8.249-7.046 6.729-1.306-1.82-2.515-3.699-3.667-5.655 3.59-0.403 7.142-0.748 10.713-1.074z"/>
<path d="m639.26 990.43c-2.362 1.822-5.011 3.164-7.527 4.794 0.039-1.822 0.115-5.484 0.154-7.305 2.63 0.402 5.088 1.227 7.373 2.511z"/>
<path d="m909.91 989.7c-3.091 1.074-4.185 0.039-3.283-3.106 3.13-1.054 4.224-0.019 3.283 3.106z"/>
<path d="m610.23 988.01c-3.11 0.978-4.167-0.096-3.168-3.221 3.149-0.959 4.205 0.115 3.168 3.221z"/>
<path d="m458.5 982.01c-0.25 3.988-3.13 4.966-6.739 5.023 0.269-1.208 0.768-3.624 1.018-4.832 1.92-0.038 3.82-0.115 5.721-0.191z"/>
<path d="m435.65 984.43c-2.669 0.959-3.629 0.077-2.861-2.627 2.688-0.939 3.648-0.077 2.861 2.627z"/>
<path d="m1040.1 971.08c-1.92 0.095-5.74 0.268-7.64 0.345 0.23-1.956 0.71-5.867 0.94-7.823 2.63 2.128 5.13 4.448 6.7 7.478z"/>
<path d="m575.64 967.04c-3.091 1.016-4.166-0.057-3.206-3.183 3.13-0.997 4.205 0.058 3.206 3.183z"/>
<path d="m852.33 964.85c-3.111 1.016-4.186-0.058-3.245-3.183 3.129-0.997 4.205 0.057 3.245 3.183z"/>
<path d="m1698.9 961.09c-3.13 0.977-4.19-0.096-3.17-3.202 3.15-0.978 4.18 0.076 3.17 3.202z"/>
<path d="m1514.3 959.48c-0.29-6.384-5.76 2.953 0 0z"/>
<path d="m1512.6 953.5c-1.9 2.512-7.08-0.134-4.85-3.029 1.9-2.569 7.1 0.096 4.85 3.029z"/>
<path d="m393 940.37c-1.805 2.838-3.898 5.522-6.874 7.267-0.096-1.803-0.249-5.407-0.326-7.209 1.805-0.02 5.395-0.058 7.2-0.058z"/>
<path d="m890.52 940.04c-3.149 0.92-4.185-0.173-3.129-3.26 3.168-0.92 4.224 0.173 3.129 3.26z"/>
<path d="m1913.9 928.69c-3.15 0.959-4.18-0.115-3.15-3.221 3.13-0.959 4.19 0.115 3.15 3.221z"/>
<path d="m1120.8 926.6c-3.13 0.977-4.19-0.096-3.15-3.221 3.17-0.94 4.23 0.134 3.15 3.221z"/>
<path d="m1686.4 924.9c-1.84 2.396-6.27-0.46-4.2-3.01 1.82-2.397 6.22 0.498 4.2 3.01z"/>
<path d="m1506.6 923.05c-2.53 2.013-5.47-2.377-2.93-4.161 2.53-1.974 5.47 2.397 2.93 4.161z"/>
<path d="m285.83 923.13c-2.726 0.767-3.629-0.154-2.669-2.8 2.765-0.767 3.648 0.173 2.669 2.8z"/>
<path d="m998.05 919.08c-3.11 1.055-4.205 0.019-3.264-3.106 3.13-1.054 4.224-0.019 3.264 3.106z"/>
<path d="m1136.7 917.7c-1.5 0.134-4.52 0.383-6.03 0.518-0.08-1.86-0.21-5.58-0.29-7.42 1.57 0.23 4.68 0.69 6.26 0.92 0 1.495 0.04 4.486 0.06 5.982z"/>
<path d="m679.16 915.35c-3.13 0.997-4.205-0.077-3.226-3.202 3.149-0.959 4.224 0.115 3.226 3.202z"/>
<path d="m1904.3 911.07c-1.82 1.86-6.08 1.361-6.6-1.477 0.5-3.911 8.85-2.454 6.6 1.477z"/>
<path d="m1895.1 911.22c-3.09 1.055-4.17 0-3.23-3.125 3.09-1.055 4.19 0 3.23 3.125z"/>
<path d="m16.686 911.32c-1.7664 2.742-7.008 0.096-4.7808-2.838 1.8048-2.722 7.0464-0.096 4.7808 2.838z"/>
<path d="m928.97 905.28c-3.091 1.035-4.167-0.038-3.207-3.164 3.111-1.016 4.186 0.039 3.207 3.164z"/>
<path d="m1485.6 903.88c-3.13 0.997-4.21-0.077-3.21-3.183 3.13-0.978 4.21 0.096 3.21 3.183z"/>
<path d="m742.64 903.57c-3.111 0.997-4.166-0.076-3.149-3.202 3.149-0.978 4.205 0.077 3.149 3.202z"/>
<path d="m1411 901.5c-3.13 0.997-4.2-0.058-3.24-3.164 3.14-0.997 4.22 0.058 3.24 3.164z"/>
<path d="m414.36 900.24c-3.129 0.94-4.166-0.153-3.129-3.24 3.168-0.94 4.205 0.134 3.129 3.24z"/>
<path d="m1134.4 895.89c-3.13 0.997-4.18-0.058-3.2-3.183 3.14-0.997 4.2 0.077 3.2 3.183z"/>
<path d="m1228 892.38c-2.68 0.863-3.62-0.038-2.78-2.722 2.71-0.863 3.65 0.038 2.78 2.722z"/>
<path d="m318.09 890.77c-3.034 1.208-4.666-3.873-1.479-4.64 3.072-1.188 4.685 3.873 1.479 4.64z"/>
<path d="m807.99 888.37c-3.092 1.054-4.186 0-3.245-3.145 3.129-1.035 4.205 0 3.245 3.145z"/>
<path d="m915.7 886.49c-3.111 0.978-4.167-0.096-3.168-3.221 3.148-0.997 4.204 0.096 3.168 3.221z"/>
<path d="m1531.5 880.6c-1.9 2.646-7.03-0.172-4.75-3.048 1.92-2.57 7.07 0.191 4.75 3.048z"/>
<path d="m1437.8 873.15c-3.13 0.978-4.2-0.077-3.18-3.202 3.13-0.978 4.2 0.096 3.18 3.202z"/>
<path d="m648.5 871.17c-3.129 0.94-4.186-0.134-3.149-3.24 3.168-0.92 4.224 0.154 3.149 3.24z"/>
<path d="m1115.2 865.5c-3.11 0.978-4.16-0.096-3.16-3.221 3.12-0.978 4.18 0.096 3.16 3.221z"/>
<path d="m1738.1 848.2c-3.44 4.697-8.03 8.666-13.86 9.912-2.65-3.029-1.21-7.439-1.56-11.082 1.21-2.608 2.42-5.215 3.57-7.842 0.43 0.863 1.25 2.589 1.67 3.432 1.71-0.537 3.38-1.15 5.03-1.84-0.17 1.572-0.44 3.125-0.8 4.678 1.5 0.69 4.47 2.051 5.95 2.742z"/>
<path d="m1502.8 855.89c-1.96 2.492-7.06-0.249-4.85-3.145 1.93-2.492 7.06 0.307 4.85 3.145z"/>
<path d="m934.58 855.72c-1.843 2.646-7.046-0.077-4.78-2.972 1.881-2.646 7.065 0.057 4.78 2.972z"/>
<path d="m1416.8 847.8c-3.07 1.131-4.18 0.115-3.36-3.048 3.1-1.112 4.23-0.096 3.36 3.048z"/>
<path d="m1111.4 842.37c-3.11 0.978-4.18-0.076-3.18-3.202 3.12-0.997 4.2 0.077 3.18 3.202z"/>
<path d="m1558.7 833.02c-3.11 1.035-4.2 0-3.24-3.145 3.11-1.035 4.2 0.019 3.24 3.145z"/>
<path d="m1649 829.01c-3.15 0.977-4.2-0.096-3.21-3.202 3.13-0.978 4.21 0.096 3.21 3.202z"/>
<path d="m1729.2 821.05c-1.84 3.03-6.6-0.287-4.49-3.087 1.84-3.029 6.62 0.288 4.49 3.087z"/>
<path d="m1109.2 819.52c-2.45-1.343-2.44-2.646 0.08-3.912 2.48 1.342 2.46 2.646-0.08 3.912z"/>
<path d="m337.8 819.15c-3.129 0.959-4.185-0.115-3.187-3.221 3.149-0.959 4.224 0.115 3.187 3.221z"/>
<path d="m656.35 815.47c-3.11 1.016-4.185-0.038-3.225-3.183 3.149-0.997 4.224 0.058 3.225 3.183z"/>
<path d="m1228.6 815.26c-2.92-1.726-5.23-4.161-6.93-7.094h7.35c-0.12 1.783-0.31 5.33-0.42 7.094z"/>
<path d="m1047.8 808.01c-3.15 0.92-4.18-0.173-3.11-3.298 3.15-0.882 4.19 0.211 3.11 3.298z"/>
<path d="m1879.2 803.87c-3.15 0.958-4.18-0.115-3.13-3.221 3.17-0.94 4.21 0.134 3.13 3.221z"/>
<path d="m1512.5 804.08c-3.13 1.016-4.19-0.058-3.19-3.183 3.13-0.997 4.19 0.077 3.19 3.183z"/>
<path d="m1082 804.3c-1.75 2.492-6.22-0.326-4.25-2.895 1.77-2.493 6.24 0.345 4.25 2.895z"/>
<path d="m1161.3 798.26c-3.09 1.036-4.18 0-3.24-3.163 3.13-1.036 4.2 0.019 3.24 3.163z"/>
<path d="m1090.2 798.37c-3.12 1.017-4.19-0.038-3.23-3.182 3.13-0.997 4.2 0.057 3.23 3.182z"/>
<path d="m129.66 798.48c-0.211-6.404-5.721 2.914 0 0z"/>
<path d="m391.06 796.66c-4.013 1.61-4.455-4.87-0.941-5.561 3.974-1.476 4.397 4.813 0.941 5.561z"/>
<path d="m698.52 794.44c-3.129 1.017-4.185-0.057-3.206-3.182 3.149-0.997 4.224 0.076 3.206 3.182z"/>
<path d="m1472.3 786.81c-3.14 0.978-4.22-0.077-3.24-3.202 3.15-0.978 4.22 0.096 3.24 3.202z"/>
<path d="m1195.1 778.91c0.34 2.09 0.13 4.199-0.37 6.232-3.61-0.441-7.01-1.707-10.58-2.455 2.75-3.278 7.05-3.374 10.95-3.777z"/>
<path d="m245.42 784.47c-3.129 0.921-4.166-0.172-3.11-3.259 3.187-0.92 4.224 0.172 3.11 3.259z"/>
<path d="m1459.2 782.38c-1.76 2.454-6.18-0.422-4.24-2.953 1.78-2.473 6.24 0.383 4.24 2.953z"/>
<path d="m1215.2 781.25c-3.13 1.016-4.21-0.038-3.25-3.164 3.13-1.016 4.23 0.039 3.25 3.164z"/>
<path d="m974.96 776.82c-2.823 2.167-5.952-2.723-3.072-4.582 2.861-2.167 5.971 2.741 3.072 4.582z"/>
<path d="m840.9 775.17c-2.534 1.956-5.529-2.397-2.918-4.141 2.554-1.937 5.568 2.415 2.918 4.141z"/>
<path d="m1750.6 773.48c-3.15 0.959-4.19-0.115-3.15-3.221 3.15-0.959 4.19 0.115 3.15 3.221z"/>
<path d="m1364.6 773.58c-3.09 1.074-4.2 0.039-3.32-3.106 3.11-1.073 4.22-0.038 3.32 3.106z"/>
<path d="m1170.4 773.5c-2.01 2.646-6.87-0.517-4.6-3.298 2.01-2.607 6.89 0.537 4.6 3.298z"/>
<path d="m228.4 765.97c-1.785 3.719-4.492 6.576-8.889 6.423-0.173-1.592-0.538-4.755-0.711-6.347 3.207-0.038 6.413-0.057 9.6-0.076z"/>
<path d="m1108.2 770.11c-1.62 0.039-4.84 0.115-6.45 0.154 0-1.649-0.02-4.947-0.02-6.596 1.59 0 4.8-0.019 6.41-0.019 0 1.61 0.04 4.851 0.06 6.461z"/>
<path d="m1034.6 769.59c-3.13 0.978-4.18-0.096-3.17-3.221 3.13-0.978 4.19 0.096 3.17 3.221z"/>
<path d="m1142.1 765.8c-3.13 0.978-4.2-0.096-3.19-3.202 3.15-0.978 4.21 0.076 3.19 3.202z"/>
<path d="m102.05 766.66c-1.536-0.172-4.5891-0.498-6.1059-0.671 0.0192-1.419 0.0577-4.295 0.0769-5.733 1.4976 0 4.474-0.019 5.971-0.019 0 1.611 0.039 4.813 0.058 6.423z"/>
<path d="m806 757.97c-3.11 0.978-4.166-0.096-3.148-3.221 3.148-0.959 4.204 0.115 3.148 3.221z"/>
<path d="m600.35 757.61c-3.053-0.421-3.13-6.058 0.095-6.212 3.092 0.441 3.149 6.04-0.095 6.212z"/>
<path d="m1192.3 754.14c2.96-5.752-6.39-0.269 0 0z"/>
<path d="m1337.8 751.49c-2.45 1.975-5.52-2.301-3.12-4.18 2.49-1.975 5.54 2.32 3.12 4.18z"/>
<path d="m1548.9 750c-1.73 2.646-6.08-0.365-4.18-2.915 1.72-2.607 6.08 0.384 4.18 2.915z"/>
<path d="m639.38 747.52c-2.036-0.824-4.09-1.648-6.164-2.492 0.135-1.419 0.423-4.257 0.557-5.695 1.748-0.191 5.261-0.613 7.008-0.805-0.441 2.991-0.921 6.001-1.401 8.992z"/>
<path d="m1336 742.59c-3.15 0.959-4.18-0.115-3.15-3.221 3.15-0.958 4.21 0.135 3.15 3.221z"/>
<path d="m1049.9 742.42c-2.86 2.282-5.64-2.837-3.05-4.736 2.9-2.281 5.72 2.857 3.05 4.736z"/>
<path d="m1186.2 738.78c-3.22 0.94-4.99-4.506-1.55-5.311 3.24-0.978 4.95 4.506 1.55 5.311z"/>
<path d="m1069.1 738.88c-2.51-1.246-2.55-2.55-0.07-3.911 2.55 1.246 2.57 2.55 0.07 3.911z"/>
<path d="m289.5 731.65c-2.63 2.665-5.664 4.908-8.87 6.864-0.269-1.803-0.807-5.388-1.056-7.19 3.321 0.076 6.643 0.191 9.926 0.326z"/>
<path d="m1620.3 735.1c-3.15 0.978-4.21-0.096-3.17-3.221 3.13-0.978 4.18 0.095 3.17 3.221z"/>
<path d="m669.58 734.89c-1.843 2.588-7.142 0.038-4.819-2.914 1.862-2.608 7.142-0.02 4.819 2.914z"/>
<path d="m1564.5 729.56c-3.13 1.016-4.2-0.039-3.2-3.164 3.13-1.016 4.2 0.038 3.2 3.164z"/>
<path d="m1130.8 729.06c-2.84 2.166-5.85-2.8-3.07-4.679 2.86-2.147 5.88 2.819 3.07 4.679z"/>
<path d="m138.55 725.95c-1.709 0.038-5.127 0.096-6.835 0.134 0.23-1.534 0.653-4.582 0.883-6.097 1.421-0.134 4.281-0.384 5.721-0.499 0.058 1.611 0.173 4.851 0.231 6.462z"/>
<path d="m95.482 721.04c-2.6496 0.786-5.3951 1.323-8.2175 1.63 1.1712-2.627 0.4992-7.938 4.9344-6.749 2.8608-0.537 5.0879 2.722 3.2831 5.119z"/>
<path d="m873.83 717.59c-3.513-1.285-6.259-3.586-7.795-7.056 2.016-0.192 6.048-0.614 8.045-0.805-0.058 1.955-0.192 5.886-0.25 7.861z"/>
<path d="m767.94 715.9c-3.111 0.978-4.167-0.096-3.149-3.221 3.149-0.958 4.205 0.115 3.149 3.221z"/>
<path d="m1810.1 713.28c-2.88 2.148-5.88-2.838-2.98-4.64 2.9-2.147 5.88 2.857 2.98 4.64z"/>
<path d="m1449.2 713.62c-2.91 0.92-4.62-4.027-1.51-4.832 2.92-0.92 4.61 4.046 1.51 4.832z"/>
<path d="m1257.4 712.03c-3.11 1.036-4.19-0.019-3.23-3.163 3.13-1.016 4.21 0.038 3.23 3.163z"/>
<path d="m441.16 709.86c-3.11 0.94-4.147-0.153-3.091-3.259 3.168-0.901 4.205 0.173 3.091 3.259z"/>
<path d="m1084.9 708.14c-3.13 0.959-4.19-0.134-3.15-3.24 3.17-0.94 4.2 0.134 3.15 3.24z"/>
<path d="m1157.1 705.84c-2.57 2.589-6.89-1.86-4.26-4.371 2.59-2.589 6.91 1.84 4.26 4.371z"/>
<path d="m1310.8 700.09c-2.77 2.167-6.03-2.607-3.23-4.563 2.78-2.147 6.07 2.627 3.23 4.563z"/>
<path d="m1116.1 702.75c-3.02-2.147-5.69-4.736-8.36-7.305 1.96-0.173 5.88-0.537 7.84-0.71 0.13 1.994 0.38 6.002 0.52 8.015z"/>
<path d="m600.75 696.5c-3.091 1.054-4.185 0.019-3.264-3.126 3.13-1.054 4.224 0 3.264 3.126z"/>
<path d="m1428.3 693.01c-3.14 0.978-4.18-0.077-3.14-3.202 3.13-0.978 4.18 0.096 3.14 3.202z"/>
<path d="m798.53 693.11c2.995-5.694-6.413-0.306 0 0z"/>
<path d="m1800.5 686.86c-2.52 0.959-5.2 1.15-7.85 1.591 0.52-3.221 1.01-6.442 1.53-9.663 2.48 2.377 4.98 4.87 6.32 8.072z"/>
<path d="m165.23 689.89c-1.747-0.307-5.28-0.901-7.046-1.208 2.093-2.474 4.416-4.736 6.854-6.864 0.039 2.013 0.154 6.058 0.192 8.072z"/>
<path d="m72.174 688.91c-1.8816 2.78-6.8352-0.287-4.608-3.106 1.9392-2.742 6.8928 0.307 4.608 3.106z"/>
<path d="m999.65 687.03c-7.718-0.652-9.292-8.359-9.792-14.648 5.818 2.857 9.197 8.264 9.792 14.648z"/>
<path d="m975 685.15c-3.13 0.978-4.186-0.095-3.168-3.221 3.148-0.958 4.204 0.115 3.168 3.221z"/>
<path d="m473.95 685.34c-3.092 1.016-4.167-0.038-3.207-3.183 3.13-0.997 4.205 0.058 3.207 3.183z"/>
<path d="m727.22 683.39c-3.11 0.94-4.166-0.134-3.11-3.259 3.149-0.92 4.186 0.173 3.11 3.259z"/>
<path d="m1042.1 681.24c-2.94 2.263-5.55-2.971-2.94-4.831 2.94-2.224 5.55 3.01 2.94 4.831z"/>
<path d="m68.85 681.24c-3.0912 1.036-4.1664 0-3.2256-3.144 3.1488-1.036 4.224 0.019 3.2256 3.144z"/>
<path d="m1168.8 677.39c-2.53 2.474-7.12-1.687-4.38-4.256 2.56-2.569 7.07 1.668 4.38 4.256z"/>
<path d="m565.63 677.14c-2.592 2.205-5.203-2.474-2.822-4.238 2.592-2.128 5.26 2.512 2.822 4.238z"/>
<path d="m1027 675.53c-3.11 1.017-4.17-0.057-3.19-3.182 3.13-0.997 4.21 0.076 3.19 3.182z"/>
<path d="m1080.5 673.59c-3.13 0.978-4.19-0.076-3.19-3.221 3.15-0.958 4.21 0.115 3.19 3.221z"/>
<path d="m729.04 673.76c-3.13 0.958-4.186-0.115-3.188-3.241 3.149-0.939 4.205 0.135 3.188 3.241z"/>
<path d="m739.3 669.72c2.938-5.714-6.412-0.211 0 0z"/>
<path d="m884.7 667.38c-2.823 2.186-5.895-2.742-3.053-4.601 2.861-2.186 5.933 2.761 3.053 4.601z"/>
<path d="m89.838 667.8c-3.1104 0.997-4.1663-0.077-3.1871-3.202 3.168-0.978 4.2239 0.096 3.1871 3.202z"/>
<path d="m241.63 666.07c-3.111 1.035-4.186-0.019-3.207-3.144 3.149-1.017 4.205 0.038 3.207 3.144z"/>
<path d="m1704.5 664c-3.13 0.997-4.21-0.057-3.23-3.202 3.13-0.977 4.21 0.077 3.23 3.202z"/>
<path d="m1508.8 662.41c-3.18 0.94-4.22-0.153-3.13-3.24 3.15-0.921 4.21 0.153 3.13 3.24z"/>
<path d="m1524.2 654.24c-3.09 1.112-4.18 0.096-3.28-3.068 3.11-1.073 4.2-0.057 3.28 3.068z"/>
<path d="m824.97 654.11c-1.766 2.416-6.259-0.383-4.262-2.933 1.804-2.397 6.316 0.364 4.262 2.933z"/>
<path d="m533.24 652.46c-1.843 2.626-7.085-0.02-4.8-2.953 1.882-2.608 7.104 0.038 4.8 2.953z"/>
<path d="m1357.3 648.51c-3.09 1.074-4.19 0.038-3.29-3.106 3.12-1.055 4.23-0.019 3.29 3.106z"/>
<path d="m633.27 644.91c-3.129 0.997-4.205-0.058-3.225-3.202 3.148-0.978 4.224 0.076 3.225 3.202z"/>
<path d="m1516.2 642.76c-3.15 0.92-4.18-0.173-3.11-3.279 3.15-0.901 4.19 0.192 3.11 3.279z"/>
<path d="m1666 641.26c-0.25-6.385-5.74 2.952 0 0z"/>
<path d="m1474.2 641.59c-3.14 0.94-4.18-0.134-3.11-3.24 3.15-0.92 4.19 0.153 3.11 3.24z"/>
<path d="m690.86 639.19c-3.13 0.939-4.186-0.134-3.149-3.24 3.168-0.94 4.224 0.134 3.149 3.24z"/>
<path d="m418.14 637.31c-1.901 2.607-6.989-0.211-4.781-3.087 1.939-2.608 7.027 0.23 4.781 3.087z"/>
<path d="m1101.1 635.32c-1.76 2.378-6.43-0.21-4.3-2.837 1.77-2.359 6.4 0.268 4.3 2.837z"/>
<path d="m1915.9 631.47c-3.13 0.978-4.2-0.096-3.19-3.221 3.13-0.978 4.21 0.096 3.19 3.221z"/>
<path d="m1877.6 631.29c-3.5 1.15-5.43-4.736-1.77-5.694 3.48-1.132 5.42 4.755 1.77 5.694z"/>
<path d="m1522.4 631.7c2.78-5.79-6.42-0.076 0 0z"/>
<path d="m652.42 629.42c-1.824 2.627-7.123 0.058-4.8-2.895 1.863-2.627 7.143-0.038 4.8 2.895z"/>
<path d="m1124.6 627.59c-2.8 2.262-5.84-2.685-3.28-4.698 2.8-2.224 5.82 2.704 3.28 4.698z"/>
<path d="m972.61 627.17c-2.592 1.975-5.28-2.55-2.899-4.333 2.573-1.918 5.376 2.588 2.899 4.333z"/>
<path d="m779.16 627.56c-3.11 0.978-4.185-0.077-3.206-3.221 3.168-0.959 4.224 0.115 3.206 3.221z"/>
<path d="m733.15 627.69c-3.111 1.036-4.186-0.019-3.245-3.144 3.13-1.036 4.205 0.019 3.245 3.144z"/>
<path d="m846.8 621.44c-3.11 0.978-4.166-0.115-3.168-3.24 3.149-0.959 4.205 0.115 3.168 3.24z"/>
<path d="m662.21 619.85c-1.843 2.703-6.874-0.192-4.742-3.049 1.92-2.722 6.969 0.154 4.742 3.049z"/>
<path d="m1441.1 616.07c-1.88 2.684-6.97-0.115-4.78-3.049 1.88-2.627 6.97 0.192 4.78 3.049z"/>
<path d="m1645.2 614.48c-3.15 0.997-4.2-0.076-3.19-3.182 3.15-0.978 4.21 0.095 3.19 3.182z"/>
<path d="m1407.3 612.16c-2.84 2.167-5.83-2.799-3.11-4.678 2.86-2.167 5.88 2.799 3.11 4.678z"/>
<path d="m665.89 610.38c-3.11 1.016-4.185-0.038-3.225-3.182 3.129-0.997 4.204 0.057 3.225 3.182z"/>
<path d="m715.45 608.4c-3.129 0.959-4.185-0.115-3.148-3.221 3.148-0.94 4.204 0.134 3.148 3.221z"/>
<path d="m1712.9 604.01c-2.86 0.594-5.74 1.17-8.6 1.745-0.56-1.381-1.66-4.142-2.21-5.522 3.59 1.323 7.24 2.435 10.81 3.777z"/>
<path d="m1570.3 604.51c-1.92 2.435-7.1-0.288-4.9-3.145 1.98-2.435 7.15 0.25 4.9 3.145z"/>
<path d="m944.35 604.91c-2.285 0.306-6.836 0.881-9.12 1.169 0.172-2.301 0.499-6.922 0.672-9.242 3.859 1.554 6.796 4.295 8.448 8.073z"/>
<path d="m679.64 604.18c-2.688 0.863-3.591-0.058-2.746-2.761 2.727-0.844 3.629 0.077 2.746 2.761z"/>
<path d="m1401.2 602.86c-3.11 1.016-4.21-0.039-3.27-3.183 3.13-0.997 4.21 0.057 3.27 3.183z"/>
<path d="m1151.7 598.58c-3.11 1.035-4.2-0.019-3.24-3.145 3.15-1.016 4.22 0.039 3.24 3.145z"/>
<path d="m1562.5 587.27c-1.89 2.512-7.13-0.134-4.8-3.03 1.92-2.53 7.16 0.115 4.8 3.03z"/>
<path d="m1326.4 587.21c-3.11 0.997-4.18-0.058-3.2-3.183 3.13-0.997 4.2 0.058 3.2 3.183z"/>
<path d="m598.81 582.98c-3.59 1.323-5.51-4.698-1.517-5.273 3.744-1.381 5.53 4.64 1.517 5.273z"/>
<path d="m1679.8 575.61c-3.11 1.035-4.2-0.019-3.24-3.144 3.14-1.017 4.22 0.038 3.24 3.144z"/>
<path d="m1410.8 573.91c-3.13 0.958-4.19-0.135-3.15-3.241 3.15-0.92 4.2 0.154 3.15 3.241z"/>
<path d="m1044.1 574.04c-3.13 0.978-4.19-0.096-3.19-3.24 3.15-0.939 4.2 0.134 3.19 3.24z"/>
<path d="m1289.8 572.03c-3.13 0.997-4.19-0.076-3.21-3.202 3.15-0.977 4.23 0.096 3.21 3.202z"/>
<path d="m1224.8 567.64c-2.56 1.956-5.49-2.435-2.9-4.18 2.55-1.936 5.51 2.454 2.9 4.18z"/>
<path d="m1010.7 568.12c-2.71 0.748-3.57-0.23-2.61-2.895 2.72-0.71 3.61 0.249 2.61 2.895z"/>
<path d="m459.3 567.14c-2.88-0.135-5.779-0.25-8.698-0.403 0.077-1.457 0.211-4.391 0.288-5.848 2.899-0.172 5.779-0.364 8.64-0.575-0.057 1.706-0.173 5.119-0.23 6.826z"/>
<path d="m1439.5 563.94c-2.48 2.492-7.08-1.649-4.66-4.314 2.49-2.493 7.04 1.649 4.66 4.314z"/>
<path d="m1080.4 562.14c-2.21 2.205-6.78-1.247-4.77-3.873 2.23-2.014 6.88 1.246 4.77 3.873z"/>
<path d="m969.29 562.58c-3.13 1.017-4.205-0.038-3.226-3.182 3.13-0.978 4.205 0.076 3.226 3.182z"/>
<path d="m1443.4 560.45c-2.69 0.862-3.61-0.058-2.78-2.761 2.68-0.844 3.61 0.076 2.78 2.761z"/>
<path d="m907.8 554.75c-1.939 2.531-6.989-0.364-4.742-3.202 1.996-2.531 7.007 0.365 4.742 3.202z"/>
<path d="m187.74 555.35c-3.725 0.671-5.51-3.011-6.893-5.81 2.074-0.077 6.221-0.23 8.295-0.307-0.346 1.534-1.037 4.583-1.402 6.117z"/>
<path d="m76.454 549.02c-3.1104 1.017-4.1664-0.057-3.2064-3.182 3.168-0.997 4.224 0.076 3.2064 3.182z"/>
<path d="m1355.5 545.11c-3.11 1.017-4.18-0.038-3.22-3.163 3.14-0.997 4.22 0.057 3.22 3.163z"/>
<path d="m1539.6 541.04c-3.11 1.093-4.2 0.076-3.28-3.087 3.13-1.074 4.22-0.039 3.28 3.087z"/>
<path d="m754.27 541.14c-1.843 2.607-7.066-0.096-4.819-2.992 1.881-2.588 7.085 0.077 4.819 2.992z"/>
<path d="m973.32 535.46c-3.13 1.016-4.186-0.039-3.226-3.164 3.149-1.016 4.224 0.039 3.226 3.164z"/>
<path d="m442.89 535.68c-3.111 1.016-4.167-0.058-3.207-3.183 3.149-0.997 4.205 0.057 3.207 3.183z"/>
<path d="m919.87 535.46c-4.281-1.016-6.662-4.237-7.949-8.302 2.055 0.211 6.183 0.652 8.237 0.882-0.077 1.84-0.211 5.56-0.288 7.42z"/>
<path d="m201.96 533.97c-1.575 0.402-4.723 1.189-6.317 1.572 0.077-1.86 0.23-5.599 0.307-7.458 1.479 0 4.416 0.019 5.875 0.019 0.039 1.476 0.116 4.41 0.135 5.867z"/>
<path d="m193.63 532.8c-2.746-0.384-3.168-1.63-1.287-3.739 2.784 0.403 3.207 1.649 1.287 3.739z"/>
<path d="m1646.9 527.95c-1.86 2.55-7.11-0.058-4.84-2.991 1.88-2.569 7.12 0.077 4.84 2.991z"/>
<path d="m1036.4 526.28c-3.14 0.959-4.18-0.115-3.12-3.24 3.14-0.94 4.18 0.134 3.12 3.24z"/>
<path d="m1007.8 525.82c-3.09 1.073-4.19 0.057-3.28-3.106 3.13-1.055 4.22-0.02 3.28 3.106z"/>
<path d="m557.82 526.2c-2.688 0.786-3.59-0.153-2.669-2.837 2.727-0.767 3.61 0.172 2.669 2.837z"/>
<path d="m1263.7 522.91c-1.57-0.057-4.72-0.153-6.29-0.191-0.27-1.764-0.83-5.292-1.12-7.056 1.87 0.134 5.57 0.383 7.43 0.517 0 1.669-0.02 5.043-0.02 6.73z"/>
<path d="m1215.5 520.22c-2.95-1.937-5.76-4.18-7.56-7.286 2.01-0.077 6.07-0.211 8.08-0.269-0.13 1.879-0.38 5.656-0.52 7.555z"/>
<path d="m840.58 518.4c-3.111 0.978-4.167-0.095-3.168-3.221 3.149-0.958 4.204 0.115 3.168 3.221z"/>
<path d="m1669.9 514.39c-1.86 2.569-7.12-0.038-4.82-2.972 1.88-2.55 7.13 0.057 4.82 2.972z"/>
<path d="m920.91 514.05c-1.708 2.396-6.393-0.154-4.358-2.8 1.766-2.339 6.451 0.173 4.358 2.8z"/>
<path d="m1662.4 512.67c-0.21-6.384-5.76 2.915 0 0z"/>
<path d="m1176.5 510.33c-2.48 2.531-7.05-1.668-4.59-4.314 2.53-2.531 6.99 1.668 4.59 4.314z"/>
<path d="m567.67 510.6c-1.862 2.742-6.873-0.23-4.646-3.087 1.901-2.703 6.931 0.25 4.646 3.087z"/>
<path d="m589 508.89c-3.092 1.016-4.167-0.038-3.207-3.183 3.13-0.997 4.205 0.058 3.207 3.183z"/>
<path d="m615.88 506.15c-2.458 1.975-5.549-2.281-3.13-4.16 2.496-1.956 5.587 2.3 3.13 4.16z"/>
<path d="m560.37 504.88c3.072-5.637-6.394-0.384 0 0z"/>
<path d="m427.56 500.66c-2.803 0.019-2.63-4.697 0.154-4.544 2.841 0 2.668 4.698-0.154 4.544z"/>
<path d="m875.33 499.25c-3.111 1.054-4.186 0-3.245-3.145 3.129-1.035 4.205 0 3.245 3.145z"/>
<path d="m1395.2 493.02c-1.77 2.301-6.45-0.268-4.42-2.876 1.79-2.205 6.49 0.25 4.42 2.876z"/>
<path d="m888.69 493.59c-2.669 0.901-3.61 0-2.784-2.704 2.688-0.901 3.629 0.02 2.784 2.704z"/>
<path d="m425.28 493.72c-2.688 0.901-3.61 0-2.803-2.704 2.707-0.882 3.648 0.019 2.803 2.704z"/>
<path d="m715.91 491.12c-3.072 1.093-4.167 0.058-3.284-3.106 3.111-1.074 4.205-0.038 3.284 3.106z"/>
<path d="m566.13 491.83c-3.091 1.036-4.166 0-3.244-3.144 3.129-1.036 4.204 0 3.244 3.144z"/>
<path d="m721.38 489.87c-0.192-6.385-5.779 2.914 0 0z"/>
<path d="m896.74 485.79c-3.13 0.978-4.186-0.096-3.168-3.202 3.168-0.959 4.224 0.096 3.168 3.202z"/>
<path d="m783.02 485.71c-3.11 0.997-4.185-0.057-3.206-3.202 3.149-0.977 4.224 0.077 3.206 3.202z"/>
<path d="m612.13 483.28c-2.804 2.089-5.857-2.8-3.188-4.736 2.861-2.109 5.895 2.818 3.188 4.736z"/>
<path d="m514.22 483.76c-3.092 1.016-4.167-0.038-3.207-3.183 3.149-0.997 4.224 0.058 3.207 3.183z"/>
<path d="m1821.7 478c-3.11 1.074-4.21 0.038-3.27-3.106 3.09-1.054 4.19-0.019 3.27 3.106z"/>
<path d="m1689.3 477.48c-2.68 0.882-3.61-0.038-2.78-2.722 2.71-0.863 3.63 0.038 2.78 2.722z"/>
<path d="m1140.1 476.14c-3.12 1.016-4.18-0.038-3.2-3.183 3.15-0.997 4.2 0.077 3.2 3.183z"/>
<path d="m884.81 476.22c-3.13 1.016-4.186-0.058-3.206-3.183 3.129-0.997 4.204 0.057 3.206 3.183z"/>
<path d="m1364.8 474.3c-3.26 1.151-5.16-4.352-1.61-5.138 3.25-1.074 5.09 4.314 1.61 5.138z"/>
<path d="m1318.7 474.23c-3.13 1.016-4.2-0.038-3.2-3.183 3.15-0.997 4.22 0.077 3.2 3.183z"/>
<path d="m1318.5 468.74c-2.74 0.748-3.61-0.211-2.59-2.856 2.74-0.71 3.61 0.249 2.59 2.856z"/>
<path d="m460.45 466.5c-3.13 0.978-4.167-0.096-3.168-3.202 3.168-0.978 4.224 0.096 3.168 3.202z"/>
<path d="m1199.5 462.7c-1.96 2.531-6.97-0.441-4.7-3.241 1.99-2.53 6.98 0.441 4.7 3.241z"/>
<path d="m1023 457.07c-3.13 0.997-4.18-0.058-3.18-3.202 3.15-0.978 4.2 0.096 3.18 3.202z"/>
<path d="m1073.3 455.03c-3.11 1.035-4.19-0.019-3.25-3.144 3.13-1.036 4.21 0.019 3.25 3.144z"/>
<path d="m865.92 454.63c-2.765 2.263-5.99-2.569-3.187-4.506 2.784-2.262 6.028 2.57 3.187 4.506z"/>
<path d="m1664.5 453.06c-3.13 0.997-4.18-0.076-3.18-3.182 3.15-0.978 4.2 0.076 3.18 3.182z"/>
<path d="m1353.2 452.94c-2.88 2.32-5.71-2.799-2.96-4.659 2.9-2.32 5.72 2.818 2.96 4.659z"/>
<path d="m1059.4 451.28c-3.13 0.978-4.19-0.095-3.17-3.221 3.15-0.958 4.2 0.115 3.17 3.221z"/>
<path d="m1543 449.59c-0.12-6.404-5.78 2.838 0 0z"/>
<path d="m1386.2 446.56c-2.48 2.033-5.62-2.224-3.03-4.045 2.49-2.014 5.64 2.243 3.03 4.045z"/>
<path d="m1482 445.06c-3.15 0.921-4.18-0.172-3.11-3.278 3.17-0.901 4.19 0.191 3.11 3.278z"/>
<path d="m1276.4 437.89c-3.11 1.016-4.19-0.058-3.21-3.202 3.13-0.997 4.2 0.077 3.21 3.202z"/>
<path d="m1595.3 435.57c-3.13 1.035-4.2-0.019-3.26-3.144 3.15-1.017 4.22 0.038 3.26 3.144z"/>
<path d="m1526 436.11c-3.13 0.959-4.19-0.115-3.17-3.24 3.15-0.92 4.21 0.153 3.17 3.24z"/>
<path d="m896.37 431.87c-3.072 1.073-4.166 0.038-3.264-3.126 3.13-1.054 4.224-0.019 3.264 3.126z"/>
<path d="m769.56 432.12c-3.11 1.036-4.186-0.019-3.226-3.182 3.111-1.016 4.186 0.057 3.226 3.182z"/>
<path d="m735.07 430.22c-3.129 0.997-4.185-0.057-3.206-3.202 3.149-0.978 4.205 0.077 3.206 3.202z"/>
<path d="m1414.7 427.86c-2.52-1.304-2.5-2.588 0.05-3.834 2.52 1.323 2.5 2.607-0.05 3.834z"/>
<path d="m1049.8 428.36c-2.52-1.284-2.52-2.588-0.02-3.911 2.52 1.285 2.53 2.588 0.02 3.911z"/>
<path d="m1376.2 426.22c-3.11 0.997-4.19-0.057-3.19-3.202 3.15-0.978 4.2 0.096 3.19 3.202z"/>
<path d="m688.88 425.97c-3.13 0.977-4.186-0.096-3.168-3.202 3.168-0.959 4.205 0.115 3.168 3.202z"/>
<path d="m719.39 422.32c-1.824 2.799-6.874-0.135-4.666-3.011 1.863-2.761 6.912 0.135 4.666 3.011z"/>
<path d="m600.67 418.64c-3.13 0.977-4.186-0.096-3.188-3.221 3.149-0.959 4.205 0.095 3.188 3.221z"/>
<path d="m1322.3 416.76c-3.11 0.978-4.16-0.096-3.16-3.24 3.12-0.94 4.18 0.134 3.16 3.24z"/>
<path d="m554.46 416.92c-3.091 1.054-4.185 0-3.283-3.145 3.111-1.016 4.205 0.019 3.283 3.145z"/>
<path d="m1153.8 412.87c3.04-5.694-6.39-0.364 0 0z"/>
<path d="m1309 410.88c-1.83 2.588-7.11 0-4.84-2.934 1.86-2.569 7.12-0.019 4.84 2.934z"/>
<path d="m838.66 410.84c-2.88 2.377-5.626-2.8-3.015-4.717 2.88-2.339 5.626 2.857 3.015 4.717z"/>
<path d="m454.18 409.11c-1.728 2.416-6.375-0.211-4.263-2.818 1.767-2.416 6.394 0.249 4.263 2.818z"/>
<path d="m1308.7 405.43c-0.34-6.385-5.66 3.01 0 0z"/>
<path d="m1391.3 401.39c-3.09 1.074-4.19 0.02-3.27-3.144 3.1-1.055 4.17 0 3.27 3.144z"/>
<path d="m805.96 401.4c-3.111 1.036-4.186-0.038-3.245-3.182 3.129-0.997 4.205 0.057 3.245 3.182z"/>
<path d="m1443.9 398.78c2.72-5.809-6.42 0 0 0z"/>
<path d="m1145.9 399.39c-3.11 0.997-4.18-0.058-3.2-3.202 3.15-0.978 4.22 0.077 3.2 3.202z"/>
<path d="m548.47 397.11c-3.092 1.016-4.167-0.019-3.245-3.164 3.149-1.016 4.224 0.038 3.245 3.164z"/>
<path d="m1355 393.64c-3.13 0.978-4.17-0.096-3.13-3.221 3.15-0.94 4.19 0.134 3.13 3.221z"/>
<path d="m846.8 393.41c2.861-5.752-6.394-0.134 0 0z"/>
<path d="m934.72 389.21c-2.688 0.863-3.591-0.058-2.746-2.742 2.707-0.863 3.629 0.058 2.746 2.742z"/>
<path d="m1381.9 387.83c-1.84 2.665-7.04-0.077-4.72-2.991 1.86-2.627 7.08 0.096 4.72 2.991z"/>
<path d="m1259.3 387.72c-3.11 1.016-4.19-0.039-3.25-3.164 3.15-0.997 4.23 0.058 3.25 3.164z"/>
<path d="m362.32 387.94c-1.939 2.531-7.008-0.345-4.743-3.183 1.997-2.511 7.066 0.365 4.743 3.183z"/>
<path d="m1462.8 385.84c-3.11 1.035-4.19-0.019-3.23-3.164 3.13-1.016 4.21 0.039 3.23 3.164z"/>
<path d="m1420.2 385.99c-1.85 2.608-7.11 0.02-4.86-2.952 1.84-2.569 7.06 0.038 4.86 2.952z"/>
<path d="m1061.6 386.01c-3.11 0.997-4.17-0.077-3.15-3.202 3.15-0.978 4.19 0.096 3.15 3.202z"/>
<path d="m915.03 383.52c-1.708 2.512-6.22-0.268-4.339-2.857 1.747-2.454 6.279 0.269 4.339 2.857z"/>
<path d="m1789 380.31c-1.67 2.416-6.45 0.058-4.32-2.626 1.63-2.493 6.43-0.039 4.32 2.626z"/>
<path d="m817.38 380.16c-3.091 1.073-4.166 0.038-3.225-3.126 3.129-1.035 4.205 0 3.225 3.126z"/>
<path d="m1232 378.07c-1.77 2.742-7.09 0.192-4.76-2.78 1.76-2.723 7.1-0.173 4.76 2.78z"/>
<path d="m834.87 378.13c-1.843 2.684-6.95-0.154-4.761-3.03 1.9-2.646 7.027 0.154 4.761 3.03z"/>
<path d="m1408.8 376.38c-1.86 2.78-6.93-0.153-4.59-3.01 1.88-2.78 6.93 0.172 4.59 3.01z"/>
<path d="m687.07 376.71c-3.111 1.035-4.186-0.019-3.245-3.164 3.13-1.016 4.205 0.039 3.245 3.164z"/>
<path d="m750.53 370.88c-2.688 0.824-3.59-0.115-2.688-2.8 2.727-0.786 3.629 0.135 2.688 2.8z"/>
<path d="m562.14 370.63c-3.091 1.074-4.166 0.02-3.225-3.144 3.129-1.016 4.204 0.019 3.225 3.144z"/>
<path d="m1495.9 368.81c-3.15 0.959-4.2-0.115-3.15-3.221 3.15-0.939 4.21 0.134 3.15 3.221z"/>
<path d="m734.98 368.94c-3.111 1.036-4.186-0.019-3.245-3.163 3.11-1.016 4.205 0.057 3.245 3.163z"/>
<path d="m704.26 369.14c-2.919 1.303-5.031-3.662-1.728-4.487 2.976-1.265 5.049 3.643 1.728 4.487z"/>
<path d="m466.12 368.89c-3.111 0.959-4.167-0.134-3.111-3.259 3.149-0.92 4.186 0.173 3.111 3.259z"/>
<path d="m1259.2 365.03c-3.13 1.036-4.2 0-3.24-3.144 3.13-1.016 4.2 0.019 3.24 3.144z"/>
<path d="m794.56 364.92c-3.111 0.978-4.167-0.076-3.188-3.202 3.168-0.978 4.224 0.096 3.188 3.202z"/>
<path d="m650.76 361.22c-3.13 1.055-4.205 0.019-3.264-3.106 3.129-1.054 4.224-0.019 3.264 3.106z"/>
<path d="m1165.1 359.4c-3.13 1.055-4.2 0.019-3.24-3.125 3.11-1.035 4.2 0.019 3.24 3.125z"/>
<path d="m410.28 357.46c-3.11 0.94-4.147-0.153-3.091-3.259 3.149-0.921 4.186 0.153 3.091 3.259z"/>
<path d="m1723.9 355.22c-3.11 1.054-4.18 0-3.22-3.145 3.13-1.035 4.2 0.019 3.22 3.145z"/>
<path d="m1107.4 355.18c-2.52-1.247-2.52-2.55-0.04-3.873 2.53 1.265 2.55 2.569 0.04 3.873z"/>
<path d="m1503.1 351.63c-3.13 1.035-4.2-0.019-3.21-3.164 3.13-0.997 4.21 0.058 3.21 3.164z"/>
<path d="m1243.9 347.2c-2.67 0.882-3.59-0.038-2.77-2.741 2.69-0.863 3.63 0.038 2.77 2.741z"/>
<path d="m1169 348.03c-3.09 1.073-4.19 0.019-3.28-3.126 3.11-1.035 4.2 0 3.28 3.126z"/>
<path d="m1368.3 345.8c-1.79 2.723-7.05 0.096-4.8-2.876 1.79-2.684 7.01-0.058 4.8 2.876z"/>
<path d="m721.67 345.65c-1.901 2.646-6.893-0.307-4.666-3.126 1.959-2.665 6.989 0.288 4.666 3.126z"/>
<path d="m911.52 342.06c-0.135-6.404-5.741 2.876 0 0z"/>
<path d="m535.37 340.09c-0.115-6.404-5.76 2.838 0 0z"/>
<path d="m485.57 340.3c-3.148 0.978-4.185-0.096-3.129-3.221 3.168-0.94 4.205 0.134 3.129 3.221z"/>
<path d="m1685.4 338.13c-3.13 1.016-4.2-0.038-3.2-3.183 3.13-0.997 4.2 0.077 3.2 3.183z"/>
<path d="m1344.9 336.37c-1.8 2.53-6.18-0.461-4.1-2.972 1.82-2.512 6.18 0.498 4.1 2.972z"/>
<path d="m687.03 336.27c-3.129 1.016-4.205-0.058-3.225-3.202 3.148-0.978 4.204 0.096 3.225 3.202z"/>
<path d="m1145.9 334.3c-3.13 0.997-4.18-0.077-3.16-3.202 3.13-0.959 4.2 0.115 3.16 3.202z"/>
<path d="m1051.8 334.28c-3.13 1.016-4.18-0.039-3.2-3.183 3.15-0.997 4.2 0.077 3.2 3.183z"/>
<path d="m877.44 332.13c2.918-5.733-6.413-0.211 0 0z"/>
<path d="m1695.1 330.25c-3.11 1.035-4.18-0.019-3.22-3.145 3.13-1.016 4.2 0.039 3.22 3.145z"/>
<path d="m819.07 328.91c-0.269-6.404-5.702 2.972 0 0z"/>
<path d="m765.89 322.81c-3.129 0.978-4.185-0.077-3.168-3.202 3.149-0.978 4.205 0.096 3.168 3.202z"/>
<path d="m683.25 323.26c-3.11 1.054-4.185 0.019-3.264-3.126 3.13-1.054 4.205 0 3.264 3.126z"/>
<path d="m399.17 322.89c-2.669 0.882-3.591-0.019-2.765-2.742 2.707-0.862 3.629 0.039 2.765 2.742z"/>
<path d="m1303.6 320.53c-3.09 1.093-4.2 0.057-3.32-3.087 3.13-1.055 4.22-0.038 3.32 3.087z"/>
<path d="m992.1 319.08c-3.13 0.959-4.186-0.115-3.149-3.221 3.149-0.959 4.205 0.115 3.149 3.221z"/>
<path d="m881.28 318.92c-3.111 1.016-4.186-0.038-3.207-3.164 3.13-0.997 4.205 0.058 3.207 3.164z"/>
<path d="m737.01 319.09c2.957-5.733-6.394-0.23 0 0z"/>
<path d="m1178.7 317.2c-3.13 0.997-4.21-0.057-3.21-3.182 3.13-1.017 4.21 0.057 3.21 3.182z"/>
<path d="m1493.2 315.18c-3.13 0.978-4.19-0.115-3.15-3.24 3.13-0.939 4.18 0.154 3.15 3.24z"/>
<path d="m721.54 315.11c-0.96-0.958-0.96-0.958 0 0z"/>
<path d="m714.16 315.07c-3.091 1.016-5.434-4.295-1.882-5.177 3.111-0.978 5.453 4.333 1.882 5.177z"/>
<path d="m702.51 315.16c-3.13 0.997-4.205-0.057-3.245-3.182 3.149-0.997 4.224 0.057 3.245 3.182z"/>
<path d="m383.92 311.29c-3.11 0.977-4.166-0.115-3.149-3.221 3.168-0.959 4.205 0.115 3.149 3.221z"/>
<path d="m1591.4 309.28c-3.18 1.131-5.37-4.256-1.74-5.062 3.18-1.092 5.35 4.276 1.74 5.062z"/>
<path d="m980.77 303.79c-2.688 1.036-4.243-3.47-1.325-4.122 2.727-0.997 4.263 3.49 1.325 4.122z"/>
<path d="m1219 301.86c-3.09 1.093-4.19 0.058-3.27-3.087 3.11-1.074 4.21-0.038 3.27 3.087z"/>
<path d="m1061.6 299.44c-3.09 1.073-4.19 0.019-3.31-3.126 3.11-1.035 4.23 0 3.31 3.126z"/>
<path d="m811.68 299.8c-3.091 1.055-4.185 0-3.225-3.144 3.129-1.016 4.204 0.038 3.225 3.144z"/>
<path d="m1126.7 297.7c-3.11 0.997-4.18-0.057-3.18-3.182 3.15-0.997 4.2 0.076 3.18 3.182z"/>
<path d="m908.29 295.97c-3.11 1.035-4.185 0-3.225-3.145 3.13-1.035 4.205 0.019 3.225 3.145z"/>
<path d="m900.15 296.03c-3.13 1.016-4.205-0.057-3.207-3.183 3.13-0.977 4.205 0.077 3.207 3.183z"/>
<path d="m1752.6 294.38c-2.98 1.362-4.96-3.604-1.68-4.467 2.98-1.323 4.96 3.624 1.68 4.467z"/>
<path d="m1604.6 294c-1.69 2.454-6.37-0.076-4.32-2.741 1.69-2.474 6.36 0.115 4.32 2.741z"/>
<path d="m496.92 293.8c-3.11 0.997-4.185-0.058-3.206-3.183 3.168-0.978 4.224 0.077 3.206 3.183z"/>
<path d="m1712.1 292c-1.9 2.55-7.14-0.135-4.76-3.049 1.9-2.492 7.14 0.173 4.76 3.049z"/>
<path d="m955.31 291.96c-0.345-6.404-5.664 3.048 0 0z"/>
<path d="m743.1 291.87c2.765-5.809-6.413-0.038 0 0z"/>
<path d="m596.77 291.98c-3.091 1.055-4.166 0-3.225-3.144 3.148-1.036 4.224 0.019 3.225 3.144z"/>
<path d="m1170.9 290.12c-2.4 1.649-6.18-0.575-6.54-3.317 1.32-3.509 8.44 0.058 6.54 3.317z"/>
<path d="m565.96 290.6c-2.784 2.3-5.914-2.627-3.149-4.564 2.822-2.243 5.933 2.665 3.149 4.564z"/>
<path d="m1443.2 288.26c-3.13 0.94-4.19-0.134-3.13-3.259 3.17-0.901 4.2 0.173 3.13 3.259z"/>
<path d="m408.67 286.33c-1.862 2.685-6.912-0.191-4.838-3.067 1.92-2.646 6.95 0.172 4.838 3.067z"/>
<path d="m1797.1 284.6c3.03-5.657-6.41-0.346 0 0z"/>
<path d="m1792.9 284.33c-3.13 0.978-4.19-0.096-3.17-3.221 3.15-0.959 4.2 0.115 3.17 3.221z"/>
<path d="m357.35 285.66c-3.014-2.147-4.147-5.618-5.069-9.069 1.575 0.077 4.704 0.211 6.279 0.288-0.384 2.933-0.788 5.867-1.21 8.781z"/>
<path d="m1359 280.88c-3.12 0.997-4.18-0.057-3.16-3.202 3.13-0.958 4.18 0.096 3.16 3.202z"/>
<path d="m1320.6 280.58c-0.18-6.404-5.78 2.857 0 0z"/>
<path d="m1117.1 278.91c-3.15 0.997-4.21-0.076-3.19-3.202 3.13-0.978 4.18 0.096 3.19 3.202z"/>
<path d="m727.37 278.79c-2.688 0.844-3.59-0.096-2.707-2.78 2.707-0.825 3.629 0.096 2.707 2.78z"/>
<path d="m232.07 278.58c-3.129 0.958-4.185-0.135-3.206-3.241 3.168-0.939 4.224 0.154 3.206 3.241z"/>
<path d="m1364.6 276.97c-0.33-6.365-5.76 2.991 0 0z"/>
<path d="m1249.5 276.68c-3.11 1.035-4.19-0.019-3.21-3.164 3.15-0.997 4.22 0.058 3.21 3.164z"/>
<path d="m965.32 276.64c-1.824 2.589-7.104 0-4.819-2.933 1.862-2.589 7.142 0 4.819 2.933z"/>
<path d="m579.49 275.24c-3.091 1.036-4.186-0.019-3.264-3.163 3.11-1.017 4.205 0.038 3.264 3.163z"/>
<path d="m657.12 274c-1.478-0.288-4.454-0.824-5.933-1.093-0.249-1.38-0.748-4.16-0.998-5.541 1.613 0.038 4.819 0.077 6.432 0.115 0.134 1.63 0.365 4.889 0.499 6.519z"/>
<path d="m566 272.7c-1.786 2.339-6.317-0.422-4.263-2.972 1.863-2.301 6.413 0.422 4.263 2.972z"/>
<path d="m470.04 272.92c-3.111 1.016-4.167-0.058-3.187-3.183 3.148-0.978 4.223 0.077 3.187 3.183z"/>
<path d="m425.55 272.62c-1.843 2.704-7.008-0.019-4.8-2.952 1.863-2.646 7.027 0.057 4.8 2.952z"/>
<path d="m1401.3 270.97c-3.11 1.016-4.18-0.038-3.18-3.183 3.15-0.997 4.2 0.077 3.18 3.183z"/>
<path d="m1316.6 270.99c-3.7 1.15-5.01-4.947-1.23-5.541 3.75-1.112 5.09 4.966 1.23 5.541z"/>
<path d="m573.58 270.91c-3.13 0.882-4.167-0.211-3.111-3.298 3.207-0.863 4.244 0.249 3.111 3.298z"/>
<path d="m1076.9 270.41c-3-2.147-5.97-4.333-8.97-6.5 4.44-0.977 8.85-2.013 13.29-2.876-1.44 3.126-2.88 6.251-4.32 9.376z"/>
<path d="m689.03 269c-3.11 0.997-4.185-0.058-3.206-3.202 3.149-0.978 4.205 0.095 3.206 3.202z"/>
<path d="m160.9 267.06c-3.149 0.767-4.8-4.678-1.536-5.56 3.187-0.748 4.858 4.716 1.536 5.56z"/>
<path d="m1280 263.38c-0.33-6.384-5.69 3.011 0 0z"/>
<path d="m370.1 263.38c-1.997 2.416-7.085-0.46-4.762-3.279 2.055-2.416 7.104 0.48 4.762 3.279z"/>
<path d="m1466.7 259.62c-3.16 0.921-4.2-0.153-3.12-3.259 3.14-0.92 4.2 0.173 3.12 3.259z"/>
<path d="m650.76 259.41c-3.11 1.036-4.185-0.019-3.225-3.163 3.149-0.997 4.224 0.057 3.225 3.163z"/>
<path d="m396.9 259.6c-0.326-6.385-5.702 3.01 0 0z"/>
<path d="m1460.5 257.51c-1.85 3.087-6.59-0.268-4.46-3.087 1.84-3.068 6.61 0.307 4.46 3.087z"/>
<path d="m1314.8 257.91c-0.66-6.385-5.51 3.298 0 0z"/>
<path d="m400.76 257.22c-2.554 1.035-4.493-3.317-1.613-4.123 2.611-1.016 4.512 3.336 1.613 4.123z"/>
<path d="m1819.5 255.82c-0.46-6.365-5.68 3.106 0 0z"/>
<path d="m1032.3 253.68c-3.11 1.036-4.19-0.019-3.23-3.183 3.13-0.997 4.2 0.058 3.23 3.183z"/>
<path d="m1039.4 249.86c-2.15 1.841-3.36 1.361-3.65-1.457 2.17-1.822 3.38-1.323 3.65 1.457z"/>
<path d="m909.72 247.88c-3.111 1.054-4.186 0-3.226-3.164 3.149-1.016 4.224 0.039 3.226 3.164z"/>
<path d="m865.38 247.9c-2.88 2.243-5.683-2.876-3.129-4.812 2.88-2.186 5.702 2.914 3.129 4.812z"/>
<path d="m1552.9 246c-3.13 1.016-4.21-0.038-3.23-3.183 3.15-0.997 4.2 0.058 3.23 3.183z"/>
<path d="m1320.1 246.1c-3.13 0.959-4.17-0.134-3.11-3.24 3.15-0.94 4.18 0.153 3.11 3.24z"/>
<path d="m756.19 246.33c-3.129 0.978-4.185-0.096-3.187-3.221 3.149-0.939 4.205 0.134 3.187 3.221z"/>
<path d="m750.28 245.54c-1.613 2.416-6.394 0.096-4.531-2.607 1.67-2.359 6.489-0.115 4.531 2.607z"/>
<path d="m406.75 242.21c-3.11 0.997-4.186-0.077-3.206-3.202 3.168-0.978 4.224 0.096 3.206 3.202z"/>
<path d="m1218.9 239.83c-3.01 1.112-4.76-3.873-1.42-4.544 3-1.074 4.76 3.911 1.42 4.544z"/>
<path d="m735.07 240.02c-2.823 2.224-5.856-2.742-3.149-4.659 2.842-2.205 5.856 2.742 3.149 4.659z"/>
<path d="m437.57 238.41c-3.091 1.093-4.185 0.058-3.283-3.106 3.13-1.055 4.205-0.019 3.283 3.106z"/>
<path d="m1011.7 236.17c-3.09 1.054-4.19 0-3.27-3.145 3.13-1.016 4.23 0.039 3.27 3.145z"/>
<path d="m1556.7 234.87c-2.87 2.224-5.96-2.723-3.02-4.583 2.84-2.166 5.91 2.761 3.02 4.583z"/>
<path d="m1197.8 232.68c-3.13 0.939-4.17-0.154-3.15-3.26 3.17-0.939 4.21 0.154 3.15 3.26z"/>
<path d="m929.05 232.8c-3.149 0.959-4.185-0.115-3.11-3.24 3.129-0.94 4.185 0.134 3.11 3.24z"/>
<path d="m483.51 232.82c-3.11 1.035-4.186-0.02-3.264-3.164 3.129-1.016 4.224 0.038 3.264 3.164z"/>
<path d="m1391.5 230.7c-3.13 0.997-4.17-0.076-3.15-3.221 3.13-0.958 4.19 0.115 3.15 3.221z"/>
<path d="m1351.2 230.63c-3.13 0.978-4.17-0.096-3.15-3.221 3.17-0.94 4.21 0.134 3.15 3.221z"/>
<path d="m539.31 228.69c-2.477-1.342-2.438-2.626 0.115-3.853 2.515 1.361 2.477 2.645-0.115 3.853z"/>
<path d="m1168.8 227.12c-3.24 0.901-4.86-4.621-1.53-5.503 3.2-0.844 4.74 4.602 1.53 5.503z"/>
<path d="m552.71 225.09c-3.13 1.016-4.205-0.038-3.226-3.164 3.149-1.016 4.224 0.058 3.226 3.164z"/>
<path d="m1652.8 223.36c-3.13 1.036-4.2 0-3.24-3.144 3.13-1.016 4.2 0.019 3.24 3.144z"/>
<path d="m1155.5 222.98c-3.13 0.997-4.18-0.077-3.18-3.202 3.16-0.978 4.22 0.095 3.18 3.202z"/>
<path d="m644.74 222.75c-3.149 0.902-4.186-0.191-3.111-3.297 3.168-0.882 4.205 0.211 3.111 3.297z"/>
<path d="m831.01 221.1c-3.11 1.016-4.166-0.058-3.187-3.183 3.149-0.997 4.224 0.057 3.187 3.183z"/>
<path d="m358.35 221.77c-2.688 0.863-3.628-0.038-2.803-2.742 2.707-0.844 3.648 0.077 2.803 2.742z"/>
<path d="m865.98 219.78c-3.13 1.036-4.205 0-3.283-3.144 3.149-1.016 4.224 0.038 3.283 3.144z"/>
<path d="m1754.3 216.23c-2.72 0.671-3.43-3.95-1.07-4.832 2.74-0.633 3.44 3.988 1.07 4.832z"/>
<path d="m679.2 217.28c-3.11 0.978-4.166-0.096-3.187-3.221 3.168-0.939 4.224 0.115 3.187 3.221z"/>
<path d="m155.73 217.65c-1.728 2.282-6.413-0.249-4.397-2.857 1.785-2.281 6.47 0.25 4.397 2.857z"/>
<path d="m1429.8 214.87c-1.71 2.512-6.34-0.192-4.25-2.78 1.73-2.435 6.38 0.172 4.25 2.78z"/>
<path d="m1359.2 215.14c-2.79 2.301-5.88-2.627-3.19-4.583 2.82-2.281 5.91 2.666 3.19 4.583z"/>
<path d="m1550.8 211.72c-1.96 1.419-4.13 2.167-6.49 2.224-1.48-1.917-2.59-4.026-3.34-6.365 3.48 0.92 8.72-0.461 9.83 4.141z"/>
<path d="m1051.8 213.7c-3.13 0.997-4.19-0.058-3.19-3.202 3.15-0.978 4.2 0.096 3.19 3.202z"/>
<path d="m978.7 213.74c-3.111 0.997-4.186-0.077-3.168-3.221 3.129-0.959 4.185 0.115 3.168 3.221z"/>
<path d="m1247.6 211.78c-3.15 0.939-4.21-0.154-3.15-3.279 3.15-0.901 4.2 0.192 3.15 3.279z"/>
<path d="m1136.3 211.34c2.9-5.733-6.41-0.192 0 0z"/>
<path d="m654.3 209.35c-3.129 0.94-4.166-0.134-3.11-3.259 3.168-0.901 4.205 0.173 3.11 3.259z"/>
<path d="m441.04 207.68c-3.092 1.035-4.167-0.019-3.207-3.183 3.13-1.016 4.186 0.058 3.207 3.183z"/>
<path d="m1841.1 203.59c-3.13 1.016-4.19-0.058-3.17-3.183 3.15-0.978 4.2 0.077 3.17 3.183z"/>
<path d="m616.09 202.12c-3.11 0.959-4.166-0.115-3.149-3.24 3.168-0.94 4.205 0.134 3.149 3.24z"/>
<path d="m1119 194.03c-2.86 0.23-3.02-4.506-0.12-4.429 2.86-0.173 3.04 4.544 0.12 4.429z"/>
<path d="m523.53 193.97c-2.304 2.148-6.701-1.572-4.282-4.007 2.362-2.166 6.682 1.572 4.282 4.007z"/>
<path d="m1746.7 191.74c-1.8 2.569-6.12-0.48-4.05-2.972 1.81-2.569 6.15 0.479 4.05 2.972z"/>
<path d="m1362.8 192.36c-3.13 0.997-4.19-0.058-3.21-3.202 3.15-0.978 4.21 0.096 3.21 3.202z"/>
<path d="m316.44 192.44c-3.11 1.017-4.185-0.057-3.206-3.182 3.149-0.978 4.224 0.076 3.206 3.182z"/>
<path d="m788.76 188.5c-3.111 0.997-4.167-0.077-3.187-3.202 3.148-0.978 4.204 0.096 3.187 3.202z"/>
<path d="m594.87 186.49c-1.92 2.512-7.027-0.268-4.877-3.144 1.959-2.474 7.085 0.249 4.877 3.144z"/>
<path d="m1155.4 183.1c-5.11 1.764-3.49-6.615 0.69-5.79 3.19 0.633 1.67 5.138-0.69 5.79z"/>
<path d="m888.67 182.85c-3.11 0.997-4.185-0.077-3.187-3.202 3.13-0.978 4.205 0.076 3.187 3.202z"/>
<path d="m293.18 182.87c-1.9 2.607-7.046-0.135-4.876-3.068 1.92-2.531 7.046 0.211 4.876 3.068z"/>
<path d="m963.59 180.91c-3.129 0.978-4.166-0.096-3.148-3.221 3.148-0.959 4.185 0.115 3.148 3.221z"/>
<path d="m1455 179.09c-3.11 1.054-4.18 0-3.24-3.145 3.13-1.016 4.2 0.039 3.24 3.145z"/>
<path d="m1165 179.13c-3.13 0.997-4.21-0.077-3.19-3.202 3.13-0.959 4.2 0.115 3.19 3.202z"/>
<path d="m1358.8 175.24c-1.86 2.608-7.08-0.057-4.84-2.991 1.87-2.607 7.05 0.096 4.84 2.991z"/>
<path d="m1101.4 173.18c-1.88 2.703-6.87-0.23-4.78-3.106 1.92-2.665 6.91 0.268 4.78 3.106z"/>
<path d="m703.78 173.43c-2.131 1.86-3.36 1.399-3.686-1.4 2.17-1.84 3.379-1.361 3.686 1.4z"/>
<path d="m1398.8 173.01c-4.34-1.573-8.58-3.432-12.63-5.695 5.09-3.432 12.75-1.208 12.63 5.695z"/>
<path d="m1234 171.63c-0.26-6.385-5.72 2.972 0 0z"/>
<path d="m351.03 171c-3.11 1.016-4.167-0.038-3.187-3.182 3.148-0.978 4.205 0.076 3.187 3.182z"/>
<path d="m904.03 168.66c-2.649 0.958-3.609 0.076-2.841-2.646 2.669-0.94 3.629-0.058 2.841 2.646z"/>
<path d="m431.33 169.2c-2.477 2.014-5.607-2.262-2.976-4.045 2.496-1.975 5.645 2.281 2.976 4.045z"/>
<path d="m1255.4 165.42c-3.13 1.016-4.2-0.038-3.22-3.164 3.13-0.997 4.2 0.077 3.22 3.164z"/>
<path d="m1214.8 165.84c-3.13 0.959-4.18-0.134-3.13-3.24 3.17-0.92 4.21 0.173 3.13 3.24z"/>
<path d="m72.422 165.25c-2.5344 2.474-6.9696-1.821-4.5312-4.429 2.5728-2.473 6.9696 1.841 4.5312 4.429z"/>
<path d="m1015.2 161.74c-3.13 0.978-4.18-0.096-3.17-3.221 3.15-0.959 4.21 0.115 3.17 3.221z"/>
<path d="m487.53 162.01c-3.072 1.093-4.166 0.058-3.264-3.086 3.11-1.074 4.205-0.039 3.264 3.086z"/>
<path d="m888.83 159.23c2.995-5.733-6.394-0.288 0 0z"/>
<path d="m637.11 159.99c-3.111 1.036-4.186-0.019-3.226-3.163 3.13-0.997 4.205 0.057 3.226 3.163z"/>
<path d="m1709.8 157.83c-1.88 2.818-6.86-0.211-4.63-3.068 1.88-2.761 6.86 0.249 4.63 3.068z"/>
<path d="m784.92 157.87c-3.111 0.997-4.186-0.077-3.187-3.222 3.148-0.939 4.204 0.135 3.187 3.222z"/>
<path d="m718.81 157.85c-1.863 2.358-6.183-0.672-4.186-3.145 1.92-2.32 6.202 0.69 4.186 3.145z"/>
<path d="m1180.3 156.08c-3.11 1.073-4.18 0.019-3.26-3.145 3.11-1.016 4.18 0.019 3.26 3.145z"/>
<path d="m1727.9 154.01c-3.13 0.959-4.16-0.134-3.13-3.259 3.13-0.94 4.17 0.153 3.13 3.259z"/>
<path d="m326.05 154.2c-3.11 0.978-4.185-0.096-3.168-3.221 3.149-0.939 4.205 0.134 3.168 3.221z"/>
<path d="m1495.3 152.19c-3.13 0.997-4.2-0.077-3.2-3.221 3.15-0.959 4.2 0.115 3.2 3.221z"/>
<path d="m808.09 152.19c-3.13 0.978-4.205-0.115-3.207-3.221 3.149-0.959 4.205 0.115 3.207 3.221z"/>
<path d="m786.8 152.25c-3.129 0.92-4.166-0.173-3.11-3.279 3.168-0.901 4.205 0.192 3.11 3.279z"/>
<path d="m892.44 148.45c-3.149 0.94-4.205-0.153-3.168-3.259 3.149-0.92 4.205 0.172 3.168 3.259z"/>
<path d="m685.13 148.28c-3.111 0.997-4.186-0.058-3.188-3.202 3.149-0.978 4.205 0.096 3.188 3.202z"/>
<path d="m454.68 146.53c-3.111 1.016-4.186-0.057-3.226-3.183 3.149-0.977 4.224 0.077 3.226 3.183z"/>
<path d="m1744.6 142.89c-0.08-6.385-5.8 2.799 0 0z"/>
<path d="m767.81 140.92c-3.11 1.035-4.186-0.019-3.206-3.145 3.129-1.016 4.205 0.02 3.206 3.145z"/>
<path d="m362.63 140.61c-3.11 0.997-4.186-0.058-3.226-3.202 3.168-0.978 4.224 0.096 3.226 3.202z"/>
<path d="m1069.1 138.83c-3.13 0.959-4.18-0.115-3.13-3.24 3.15-0.94 4.19 0.134 3.13 3.24z"/>
<path d="m594.97 136.83c-3.11 0.978-4.166-0.096-3.168-3.221 3.149-0.978 4.205 0.096 3.168 3.221z"/>
<path d="m1180.8 134.82c-3.09 1.093-4.17 0.058-3.24-3.106 3.11-1.073 4.18-0.019 3.24 3.106z"/>
<path d="m901.86 134.88c-3.111 1.017-4.167-0.057-3.168-3.221 3.129-0.958 4.185 0.115 3.168 3.221z"/>
<path d="m1706.5 133.04c-3.13 0.997-4.2-0.076-3.2-3.202 3.13-0.958 4.18 0.096 3.2 3.202z"/>
<path d="m873.35 131.04c-3.11 1.016-4.185-0.058-3.206-3.183 3.149-0.997 4.205 0.058 3.206 3.183z"/>
<path d="m1897.9 129.26c-1.84 2.761-7.14 0.057-4.61-2.876 1.85-2.704 7.13 0 4.61 2.876z"/>
<path d="m1503.2 128.51c-2.44 2.013-5.7-2.148-3.13-4.027 2.46-1.974 5.7 2.186 3.13 4.027z"/>
<path d="m673.77 128.47c-2.65 0.921-3.61 0.019-2.861-2.684 2.707-0.901 3.667 0 2.861 2.684z"/>
<path d="m78.412 128.99c-2.4576-1.361-2.4192-2.646 0.1152-3.873 2.496 1.381 2.4576 2.684-0.1152 3.873z"/>
<path d="m1149.8 127.07c-2.86 2.263-5.64-2.856-3.09-4.774 2.88-2.262 5.68 2.876 3.09 4.774z"/>
<path d="m521.7 127c-0.998-0.939-0.998-0.939 0 0z"/>
<path d="m1167.4 123.37c-3.07 1.093-4.17 0.058-3.27-3.106 3.11-1.074 4.19-0.038 3.27 3.106z"/>
<path d="m671.67 123.53c-3.11 0.997-4.185-0.076-3.206-3.202 3.129-0.977 4.205 0.096 3.206 3.202z"/>
<path d="m836.62 119.54c-3.111 0.997-4.167-0.077-3.168-3.202 3.148-0.959 4.204 0.115 3.168 3.202z"/>
<path d="m602.38 119.54c-3.091 1.036-4.166-0.019-3.225-3.163 3.129-1.017 4.205 0.038 3.225 3.163z"/>
<path d="m128.08 115.49c-1.843 2.627-6.969-0.115-4.896-3.048 1.92-2.55 7.047 0.153 4.896 3.048z"/>
<path d="m556.93 115.95c-2.381-1.917-9.312-3.087-6.509-7.458 1.632-0.23 4.896-0.71 6.528-0.94 0 2.09-0.019 6.308-0.019 8.398z"/>
<path d="m1706.8 110.07c-3.15 0.959-4.21-0.115-3.17-3.221 3.15-0.939 4.2 0.134 3.17 3.221z"/>
<path d="m1213.3 109.82c-3.11 0.997-4.17-0.076-3.19-3.201 3.13-0.959 4.2 0.095 3.19 3.201z"/>
<path d="m886.48 110.35c-0.192-6.384-5.817 2.876 0 0z"/>
<path d="m289.67 109.99c-3.11 0.978-4.166-0.096-3.168-3.221 3.149-0.978 4.205 0.096 3.168 3.221z"/>
<path d="m1395.8 104.01c-3.4 1.227-4.72-4.372-1.36-5.1389 3.42-1.2271 4.76 4.4099 1.36 5.1389z"/>
<path d="m650.28 102.7c-2.573 2.416-6.931-1.859-4.685-4.5436 2.573-2.3392 6.932 1.9366 4.685 4.5436z"/>
<path d="m266.54 102.24c-3.091 1.055-4.166 0-3.206-3.1634 3.149-0.9971 4.204 0.0575 3.206 3.1634z"/>
<path d="m1305.2 100.27c-3.12 1.016-4.17-0.039-3.19-3.183 3.15-0.997 4.2 0.0576 3.19 3.183z"/>
<path d="m1036.3 100.25c-2.9 2.244-5.6-2.8949-3.07-4.8314 2.9-2.1665 5.66 2.9528 3.07 4.8314z"/>
<path d="m700.45 96.664c-3.091 1.0737-4.166 0.0192-3.245-3.1253 3.111-1.0545 4.205-0.0191 3.245 3.1253z"/>
<path d="m545.16 94.613c-3.091 1.0738-4.166 0.0192-3.245-3.1252 3.111-1.0545 4.186 0 3.245 3.1252z"/>
<path d="m1292.1 92.753c-3.15 0.9011-4.18-0.2109-3.11-3.2978 3.17-0.8819 4.21 0.2109 3.11 3.2978z"/>
<path d="m1065.3 92.983c-3.13 0.9587-4.19-0.0958-3.15-3.2211 3.15-0.9395 4.21 0.1342 3.15 3.2211z"/>
<path d="m249.25 90.644c-3.091 1.0737-4.167 0.0383-3.245-3.1253 3.149-1.0354 4.224 0.0192 3.245 3.1253z"/>
<path d="m783.03 88.362c-2.688 0.8244-3.609-0.0959-2.765-2.7802 2.746-0.8244 3.668 0.0959 2.765 2.7802z"/>
<path d="m565.94 88.688c-2.227 2.0516-6.874-1.2079-4.915-3.873 2.246-1.9173 6.988 1.208 4.915 3.873z"/>
<path d="m558.18 88.746c-0.96-0.9587-0.96-0.9587 0 0z"/>
<path d="m496.68 88.458c-2.573 2.3584-6.931-1.9748-4.589-4.5632 2.631-2.3008 7.008 1.9557 4.589 4.5632z"/>
<path d="m1385.8 86.848c-3.09 1.0929-4.19 0.0384-3.25-3.1252 3.13-1.0354 4.21 0.0192 3.25 3.1252z"/>
<path d="m1679.6 84.297c-2.69 0.9203-3.63 0.0192-2.83-2.6651 2.71-0.882 3.65 0 2.83 2.6651z"/>
<path d="m1480.2 82.745c-3.11 1.0929-4.2 0.0575-3.32-3.0869 3.11-1.0545 4.23-0.0384 3.32 3.0869z"/>
<path d="m1453.1 80.942c-3.1 1.112-4.19 0.0958-3.29-3.0678 3.09-1.0929 4.19-0.0766 3.29 3.0678z"/>
<path d="m752.18 80.942c-0.941-0.9587-0.941-0.9587 0 0z"/>
<path d="m1301.7 79.236c-6.6 0.6135 0-7.9569 1.67-1.994-0.42 0.4985-1.25 1.4955-1.67 1.994z"/>
<path d="m1408.2 77.472c-1.51 1.879-5.56 1.5531-5.91-1.1695 0.33-3.7388 8.01-2.5309 5.91 1.1695z"/>
<path d="m1852.2 75.669c-0.41-6.3656-5.69 3.0677 0 0z"/>
<path d="m1215 71.624c-3.11 1.0545-4.18-1e-4 -3.24-3.1637 3.13-1.0161 4.2 0.0384 3.24 3.1637z"/>
<path d="m865.56 71.528c-1.92 2.5117-7.028-0.3067-4.82-3.1636 1.978-2.4733 7.066 0.2876 4.82 3.1636z"/>
<path d="m1877 69.822c-0.33-6.3655-5.74 2.9911 0 0z"/>
<path d="m548.89 64.069c-0.135-6.3847-5.799 2.8568 0 0z"/>
<path d="m539.38 63.993c-3.111 0.9779-4.148-0.115-3.13-3.2403 3.13-0.9395 4.186 0.1342 3.13 3.2403z"/>
<path d="m351.05 63.801c-3.111 0.9395-4.167-0.1534-3.13-3.2786 3.168-0.9012 4.205 0.1726 3.13 3.2786z"/>
<path d="m95.75 62.133c-3.1296 0.9586-4.1857-0.1343-3.1681-3.2403 3.168-0.9395 4.2241 0.1533 3.1681 3.2403z"/>
<path d="m1854 59.679c-1.75 2.7802-7.11 0.3068-4.78-2.7226 1.74-2.7226 7.12-0.2492 4.78 2.7226z"/>
<path d="m1839 56.247c-3.11 1.0737-4.18 0.0383-3.24-3.1253 3.11-1.0545 4.19 1e-4 3.24 3.1253z"/>
<path d="m1660.6 54.253c-1.9 2.7034-6.93-0.2302-4.71-3.087 1.92-2.6651 6.97 0.2493 4.71 3.087z"/>
<path d="m1470.5 54.425c-3.13 1.0162-4.19-0.0383-3.21-3.1827 3.13-0.997 4.21 0.0574 3.21 3.1827z"/>
<path d="m1134.1 54.137c-1.85 2.7034-7.03-0.0575-4.71-2.9718 1.86-2.6268 7.07 0.0958 4.71 2.9718z"/>
<path d="m859.6 53.581c-2.457 2.435-7.142-1.553-4.723-4.2564 2.496-2.4159 7.2 1.5721 4.723 4.2564z"/>
<path d="m1503.1 48.942c-0.35-6.3847-5.7 3.0294 0 0z"/>
<path d="m844.65 48.386c-1.863 3.0103-6.567-0.3834-4.512-3.1635 1.881-3.0102 6.604 0.4026 4.512 3.1635z"/>
<path d="m525.77 48.559c-3.11 1.0162-4.166-0.0575-3.206-3.2019 3.148-0.9778 4.224 0.0958 3.206 3.2019z"/>
<path d="m462.49 48.73c2.842-5.7904-6.393-0.1342 0 0z"/>
<path d="m376.11 48.693c-3.13 0.9394-4.166-0.1343-3.11-3.2595 3.148-0.9204 4.185 0.1725 3.11 3.2595z"/>
<path d="m189.72 48.673c-3.111 1.0162-4.167-0.0383-3.207-3.1827 3.149-0.9778 4.205 0.0767 3.207 3.1827z"/>
<path d="m1491.1 46.699c-3.11 1.0162-4.17-0.0576-3.17-3.1829 3.13-0.9778 4.19 0.096 3.17 3.1829z"/>
<path d="m1460.8 43.535c-2.95 2.1283-7.02-2.7418-3.28-4.5824 3-2.1091 7.05 2.7418 3.28 4.5824z"/>
<path d="m823.41 42.212c-2.65 0.9395-3.629 0.0575-2.938-2.6651 2.688-0.9203 3.667-0.0383 2.938 2.6651z"/>
<path d="m1646.6 41.1c-0.25-6.3848-5.72 2.9527 0 0z"/>
<path d="m512.41 41.138c-0.269-6.3847-5.721 2.9719 0 0z"/>
<path d="m1288.1 38.972c-3.11 1.0353-4.19-0.0193-3.23-3.1637 3.13-1.0162 4.21 0.0384 3.23 3.1637z"/>
<path d="m829.15 39.068c-3.129 0.997-4.205-0.0767-3.225-3.2211 3.148-0.9587 4.224 0.0958 3.225 3.2211z"/>
<path d="m1236.3 35.482c-3.17 0.9587-4.21-0.115-3.15-3.2211 3.16-0.9203 4.2 0.1534 3.15 3.2211z"/>
<path d="m602.57 33.278c-2.573 2.1665-5.299-2.416-2.765-4.1607 2.612-2.1283 5.319 2.4542 2.765 4.1607z"/>
<path d="m164.37 33.258c-3.091 0.997-4.147-0.0576-3.187-3.2021 3.148-0.9778 4.204 0.096 3.187 3.2021z"/>
<path d="m677.22 31.302c-3.11 0.997-4.166-0.0575-3.187-3.2019 3.149-0.9587 4.224 0.0958 3.187 3.2019z"/>
<path d="m429.87 31.417c-3.84 0.2684-7.699 0.4219-11.578 0.5369-0.038-1.1312-0.096-3.3938-0.115-4.525 4.167 0.5752 9.62-0.8052 11.693 3.9881z"/>
<path d="m1115.2 29.385c-3.11 1.0162-4.16-0.0575-3.18-3.2019 3.15-0.9779 4.2 0.0958 3.18 3.2019z"/>
<path d="m899.85 23.576c-3.11 1.0162-4.166-0.0384-3.187-3.1828 3.13-0.9779 4.205 0.0767 3.187 3.1828z"/>
<path d="m102.99 19.894c-1.747 2.2816-6.3743-0.2492-4.6271-2.9143 1.7851-2.2241 6.3361 0.3067 4.6271 2.9143z"/>
<path d="m704.37 17.996c-0.326-6.3847-5.683 3.0294 0 0z"/>
<path d="m443.94 18.993c-2.457-0.7861-4.953-1.6489-7.449-2.4925 0.902-1.8215 2.361-3.3937 2.918-5.3877-1.574 0.0191-3.129 0.2108-4.704 0.5751 0.538-2.5884 1.018-5.1576 1.459-7.7843 1.882 1.0545 3.706 2.0899 5.53 3.1061-0.038 0.95867-0.115 2.8568-0.154 3.8155 0.711 2.761 1.575 5.4836 2.4 8.1679z"/>
<path d="m1360.9 15.983c-3.11 1.0545-4.18-1e-4 -3.24-3.1445 3.13-1.0162 4.2 0.0192 3.24 3.1445z"/>
<path d="m475.51 16.251c-2.151 1.8407-3.379 1.3421-3.648-1.4572 2.189-1.7831 3.417-1.3037 3.648 1.4572z"/>
<path d="m1608.2 13.241c-1.51 2.0707-5.8-0.0767-4.03-2.4542 1.54-1.9749 5.86 0.0767 4.03 2.4542z"/>
<path d="m875.16 14.085c-3.111 1.0354-4.166-0.0384-3.187-3.1828 3.129-0.99702 4.185 0.0768 3.187 3.1828z"/>
<path d="m556.57 14.143c-3.13 0.9779-4.167-0.0958-3.149-3.2211 3.148-0.95864 4.205 0.1151 3.149 3.2211z"/>
<path d="m598.39 10.327c-2.688 0.9011-3.648 1e-4 -2.841-2.7034 2.707-0.8628 3.648 0.0383 2.841 2.7034z"/>
<path d="m512.45 10.116c-3.092 1.0162-4.167-0.0384-3.245-3.1828 3.129-0.99701 4.224 0.05759 3.245 3.1828z"/>
<path d="m1255.5 8.294c-3.11 1.0354-4.19-0.01922-3.21-3.1636 3.13-1.0354 4.21 0.01922 3.21 3.1636z"/>
<path d="m1036.4 7.9874c-3.13 0.97784-4.19-0.09597-3.17-3.2212 3.15-0.93949 4.2 0.13432 3.17 3.2212z"/>
<path d="m1053.6 6.5684c-2.5-1.3038-2.5-2.6075 0-3.9113 2.52 1.323 2.52 2.6267 0 3.9113z"/>
<path d="m594.82 4.671c-3.11 1.0354-4.186-0.0383-3.226-3.1827 3.13-0.99701 4.205 0.05747 3.226 3.1827z"/>
<path d="m846.49 2.945c-3.13 1.0162-4.205-0.05757-3.206-3.1636 3.148-0.97784 4.224 0.07674 3.206 3.1636z"/>
<path d="m1595.1 0.26114c-1.77 2.3967-6.32-0.34514-4.26-2.8952 1.8-2.3392 6.41 0.32596 4.26 2.8952z"/>
<path d="m1481.8 1.0464c-1.59 2.1474-5.72-0.28765-3.69-2.5693 1.6-2.1282 5.72 0.30682 3.69 2.5693z"/>
<path d="m944.24 0.70152c-3.11 1.0354-4.185-0.019122-3.245-3.1827 3.111-0.99701 4.205 0.07664 3.245 3.1827z"/>
</g>
<mask id="n" x="0" y="0" width="1920" height="1050" style="mask-type:alpha" maskUnits="userSpaceOnUse">
<rect width="1920" height="1050" fill="#0C1D17"/>
</mask>
<g mask="url(#n)">
<g filter="url(#q)">
<circle cx="1660" cy="469" r="89" fill="#fff"/>
</g>
<g filter="url(#p)">
<ellipse cx="971" cy="185.5" rx="162" ry="32.5" fill="#fff"/>
</g>
<g filter="url(#o)">
<circle cx="324" cy="554" r="67" fill="#fff"/>
</g>
<rect x="85.5" y="462.5" width="159" height="159" rx="15.5" stroke="#fff" stroke-opacity=".04"/>
<rect x="85.5" y="781.5" width="159" height="159" rx="15.5" stroke="#fff" stroke-opacity=".04"/>
<rect x="721.5" y="781.5" width="159" height="159" rx="15.5" stroke="#fff" stroke-opacity=".04"/>
<rect x="1357.5" y="462.5" width="159" height="159" rx="15.5" stroke="#fff" stroke-opacity=".04"/>
<rect x="1357.5" y="781.5" width="159" height="159" rx="15.5" stroke="#fff" stroke-opacity=".04"/>
<rect x="403.5" y="462.5" width="159" height="159" rx="15.5" stroke="#fff" stroke-opacity=".04"/>
<rect x="403.5" y="781.5" width="159" height="159" rx="15.5" stroke="#fff" stroke-opacity=".04"/>
<rect x="1039.5" y="781.5" width="159" height="159" rx="15.5" stroke="#fff" stroke-opacity=".04"/>
<rect x="1675.5" y="143.5" width="159" height="159" rx="15.5" stroke="#fff" stroke-opacity=".04"/>
<rect x="1675.5" y="462.5" width="159" height="159" rx="15.5" stroke="#fff" stroke-opacity=".04"/>
<rect x="1675.5" y="781.5" width="159" height="159" rx="15.5" stroke="#fff" stroke-opacity=".04"/>
<rect x="85.5" y="-15.5" width="159" height="159" rx="15.5" stroke="url(#i)" stroke-opacity=".04"/>
<rect x="85.5" y="303.5" width="159" height="159" rx="15.5" stroke="#fff" stroke-opacity=".04"/>
<rect x="85.5" y="622.5" width="159" height="159" rx="15.5" stroke="#fff" stroke-opacity=".04"/>
<rect x="85.5" y="941.5" width="159" height="159" rx="15.5" stroke="#fff" stroke-opacity=".04"/>
<rect x="721.5" y="941.5" width="159" height="159" rx="15.5" stroke="#fff" stroke-opacity=".04"/>
<rect x="1357.5" y="622.5" width="159" height="159" rx="15.5" stroke="#fff" stroke-opacity=".04"/>
<rect x="1357.5" y="941.5" width="159" height="159" rx="15.5" stroke="#fff" stroke-opacity=".04"/>
<rect x="403.5" y="622.5" width="159" height="159" rx="15.5" stroke="#fff" stroke-opacity=".04"/>
<rect x="403.5" y="941.5" width="159" height="159" rx="15.5" stroke="#fff" stroke-opacity=".04"/>
<rect x="1039.5" y="941.5" width="159" height="159" rx="15.5" stroke="#fff" stroke-opacity=".04"/>
<rect x="1675.5" y="303.5" width="159" height="159" rx="15.5" stroke="#fff" stroke-opacity=".04"/>
<rect x="1675.5" y="622.5" width="159" height="159" rx="15.5" stroke="#fff" stroke-opacity=".04"/>
<rect x="1675.5" y="941.5" width="159" height="159" rx="15.5" stroke="#fff" stroke-opacity=".04"/>
<rect x="-74" y="143" width="160" height="160" rx="16" fill="url(#h)" fill-opacity=".05"/>
<rect x="-73.5" y="462.5" width="159" height="159" rx="15.5" stroke="#fff" stroke-opacity=".04"/>
<rect x="-74" y="781" width="160" height="160" rx="16" fill="url(#g)" fill-opacity=".05"/>
<rect x="562.5" y="781.5" width="159" height="159" rx="15.5" stroke="#fff" stroke-opacity=".04"/>
<rect x="1198.5" y="781.5" width="159" height="159" rx="15.5" stroke="#fff" stroke-opacity=".04"/>
<rect x="244.5" y="143.5" width="159" height="159" rx="15.5" stroke="url(#f)" stroke-opacity=".04"/>
<rect x="85.5" y="143.5" width="159" height="159" rx="15.5" stroke="#fff" stroke-opacity=".04"/>
<rect x="244" y="462" width="160" height="160" rx="16" fill="url(#e)" fill-opacity=".05"/>
<rect x="244.5" y="781.5" width="159" height="159" rx="15.5" stroke="#fff" stroke-opacity=".04"/>
<rect x="880.5" y="781.5" width="159" height="159" rx="15.5" stroke="#fff" stroke-opacity=".04"/>
<rect x="1516.5" y="143.5" width="159" height="159" rx="15.5" stroke="url(#d)" stroke-opacity=".04"/>
<rect x="1516.5" y="462.5" width="159" height="159" rx="15.5" stroke="#fff" stroke-opacity=".04"/>
<rect x="1516.5" y="781.5" width="159" height="159" rx="15.5" stroke="#fff" stroke-opacity=".04"/>
<rect x="-73.5" y="-15.5" width="159" height="159" rx="15.5" stroke="url(#c)" stroke-opacity=".04"/>
<rect x="-73.5" y="303.5" width="159" height="159" rx="15.5" stroke="#fff" stroke-opacity=".04"/>
<rect x="-73.5" y="622.5" width="159" height="159" rx="15.5" stroke="#fff" stroke-opacity=".04"/>
<rect x="-73.5" y="941.5" width="159" height="159" rx="15.5" stroke="#fff" stroke-opacity=".04"/>
<rect x="562.5" y="-15.5" width="159" height="159" rx="15.5" stroke="url(#b)" stroke-opacity=".18"/>
<rect x="562.5" y="941.5" width="159" height="159" rx="15.5" stroke="#fff" stroke-opacity=".04"/>
<rect x="1198.5" y="-15.5" width="159" height="159" rx="15.5" stroke="url(#a)" stroke-opacity=".18"/>
<rect x="1198.5" y="941.5" width="159" height="159" rx="15.5" stroke="#fff" stroke-opacity=".04"/>
<rect x="244.5" y="303.5" width="159" height="159" rx="15.5" stroke="#fff" stroke-opacity=".04"/>
<rect x="244.5" y="622.5" width="159" height="159" rx="15.5" stroke="#fff" stroke-opacity=".04"/>
<rect x="244.5" y="941.5" width="159" height="159" rx="15.5" stroke="#fff" stroke-opacity=".04"/>
<rect x="880.5" y="941.5" width="159" height="159" rx="15.5" stroke="#fff" stroke-opacity=".04"/>
<rect x="1516" y="303" width="160" height="160" rx="16" fill="url(#l)" fill-opacity=".05"/>
<rect x="1516.5" y="622.5" width="159" height="159" rx="15.5" stroke="#fff" stroke-opacity=".04"/>
<rect x="1516.5" y="941.5" width="159" height="159" rx="15.5" stroke="#fff" stroke-opacity=".04"/>
<rect x="1834.5" y="143.5" width="159" height="159" rx="15.5" stroke="#fff" stroke-opacity=".04"/>
<rect x="1834.5" y="462.5" width="159" height="159" rx="15.5" stroke="#fff" stroke-opacity=".04"/>
<rect x="1834.5" y="781.5" width="159" height="159" rx="15.5" stroke="#fff" stroke-opacity=".04"/>
<rect x="1834" y="-16" width="160" height="160" rx="16" fill="url(#k)" fill-opacity=".05"/>
<rect x="1834.5" y="303.5" width="159" height="159" rx="15.5" stroke="#fff" stroke-opacity=".04"/>
<rect x="1834" y="622" width="160" height="160" rx="16" fill="url(#j)" fill-opacity=".05"/>
<rect x="1834.5" y="941.5" width="159" height="159" rx="15.5" stroke="#fff" stroke-opacity=".04"/>
</g>
<defs>
<filter id="q" x="1071" y="-120" width="1178" height="1178" color-interpolation-filters="sRGB" filterUnits="userSpaceOnUse">
<feFlood flood-opacity="0" result="BackgroundImageFix"/>
<feBlend in="SourceGraphic" in2="BackgroundImageFix" result="shape"/>
<feGaussianBlur result="effect1_foregroundBlur_1_1159" stdDeviation="250"/>
</filter>
<filter id="p" x="409" y="-247" width="1124" height="865" color-interpolation-filters="sRGB" filterUnits="userSpaceOnUse">
<feFlood flood-opacity="0" result="BackgroundImageFix"/>
<feBlend in="SourceGraphic" in2="BackgroundImageFix" result="shape"/>
<feGaussianBlur result="effect1_foregroundBlur_1_1159" stdDeviation="200"/>
</filter>
<filter id="o" x="-243" y="-13" width="1134" height="1134" color-interpolation-filters="sRGB" filterUnits="userSpaceOnUse">
<feFlood flood-opacity="0" result="BackgroundImageFix"/>
<feBlend in="SourceGraphic" in2="BackgroundImageFix" result="shape"/>
<feGaussianBlur result="effect1_foregroundBlur_1_1159" stdDeviation="250"/>
</filter>
<linearGradient id="m" x1="960" x2="960" y2="1050" gradientUnits="userSpaceOnUse">
<stop stop-color="#163027" offset="0"/>
<stop stop-color="#0C1D17" offset="1"/>
</linearGradient>
<linearGradient id="i" x1="89" x2="122.5" y1="139.5" y2="118.5" gradientUnits="userSpaceOnUse">
<stop stop-color="#fff" offset="0"/>
<stop stop-color="#fff" stop-opacity="0" offset="1"/>
</linearGradient>
<linearGradient id="h" x1="79.5" x2="-44" y1="149" y2="272.5" gradientUnits="userSpaceOnUse">
<stop stop-color="#fff" offset="0"/>
<stop stop-color="#fff" stop-opacity="0" offset=".51843"/>
</linearGradient>
<linearGradient id="g" x1="24.5" x2="86" y1="861" y2="788" gradientUnits="userSpaceOnUse">
<stop stop-color="#fff" stop-opacity="0" offset="0"/>
<stop stop-color="#fff" offset="1"/>
</linearGradient>
<linearGradient id="f" x1="244" x2="333.5" y1="303" y2="218.5" gradientUnits="userSpaceOnUse">
<stop stop-color="#fff" offset="0"/>
<stop stop-color="#fff" stop-opacity="0" offset="1"/>
</linearGradient>
<linearGradient id="e" x1="397.5" x2="179.5" y1="468" y2="664.5" gradientUnits="userSpaceOnUse">
<stop stop-color="#fff" stop-opacity="0" offset="0"/>
<stop stop-color="#fff" offset="1"/>
</linearGradient>
<linearGradient id="d" x1="1671" x2="1587.5" y1="300" y2="226" gradientUnits="userSpaceOnUse">
<stop stop-color="#fff" offset="0"/>
<stop stop-color="#fff" stop-opacity="0" offset="1"/>
</linearGradient>
<linearGradient id="c" x1="3.5" x2="81.5" y1="57" y2="144" gradientUnits="userSpaceOnUse">
<stop stop-color="#fff" stop-opacity="0" offset=".33162"/>
<stop stop-color="#fff" offset=".98746"/>
</linearGradient>
<linearGradient id="b" x1="569.5" x2="610.5" y1="144" y2="97.5" gradientUnits="userSpaceOnUse">
<stop stop-color="#fff" offset="0"/>
<stop stop-color="#fff" stop-opacity="0" offset="1"/>
</linearGradient>
<linearGradient id="a" x1="1353" x2="1302.5" y1="144" y2="99.5" gradientUnits="userSpaceOnUse">
<stop stop-color="#fff" offset="0"/>
<stop stop-color="#fff" stop-opacity="0" offset="1"/>
</linearGradient>
<linearGradient id="l" x1="1669.5" x2="1546" y1="309" y2="432.5" gradientUnits="userSpaceOnUse">
<stop stop-color="#fff" offset=".0078684"/>
<stop stop-color="#fff" stop-opacity="0" offset="1"/>
</linearGradient>
<linearGradient id="k" x1="1840" x2="1834" y1="80.5" y2="139" gradientUnits="userSpaceOnUse">
<stop stop-color="#fff" stop-opacity="0" offset="0"/>
<stop stop-color="#fff" offset="1"/>
</linearGradient>
<linearGradient id="j" x1="1888.5" x2="1864" y1="665.5" y2="751.5" gradientUnits="userSpaceOnUse">
<stop stop-color="#fff" stop-opacity="0" offset="0"/>
<stop stop-color="#fff" offset="1"/>
</linearGradient>
<clipPath id="r">
<rect transform="translate(1920 1050) rotate(180)" width="1920" height="1050" fill="#fff"/>
</clipPath>
</defs>
</svg>
